<?xml version="1.0" encoding="UTF-8"?>
<svg version="1.1" xmlns="http://www.w3.org/2000/svg" width="1080" height="1080">
<path d="M0 0 C1.2413269 -0.00807175 2.48265381 -0.01614349 3.76159668 -0.02445984 C6.39069238 -0.03825895 9.01980569 -0.04899966 11.64892578 -0.05688477 C14.2922647 -0.06564313 16.93432 -0.08862111 19.57763672 -0.1184082 C36.88755333 -0.31301159 53.20123495 0.68764036 70.15625 4.23828125 C72.05431396 4.61569458 72.05431396 4.61569458 73.99072266 5.00073242 C76.91664889 5.60949276 79.81688394 6.27441857 82.71875 6.98828125 C83.73702881 7.23650635 84.75530762 7.48473145 85.80444336 7.74047852 C136.38893382 20.50661294 185.87215662 49.81823783 218.15625 91.23828125 C218.57390625 91.77372559 218.9915625 92.30916992 219.421875 92.86083984 C227.15625 102.82292451 227.15625 102.82292451 227.15625 105.23828125 C227.81625 105.23828125 228.47625 105.23828125 229.15625 105.23828125 C229.51546036 106.15986023 229.87467072 107.08143921 230.24476624 108.03094482 C231.98084962 112.17989966 233.52290697 115.48405808 237.15625 118.23828125 C244.82188534 120.80168025 253.56509245 119.86163424 261.52734375 119.69140625 C263.93489742 119.68705586 266.34246829 119.68858542 268.75001526 119.69573975 C275.07197713 119.69943631 281.39074511 119.62634453 287.7119751 119.53619385 C294.16394237 119.45655746 300.61597081 119.44465243 307.06835938 119.4296875 C314.30656574 119.41134391 321.54402612 119.38634648 328.78184509 119.30596924 C329.87750793 119.29493668 330.97317078 119.28390411 332.10203552 119.27253723 C334.15703133 119.25085106 336.21198984 119.22514088 338.26687622 119.19480896 C339.61468925 119.18131157 339.61468925 119.18131157 340.98973083 119.1675415 C341.77484763 119.15710941 342.55996443 119.14667732 343.36887264 119.13592911 C345.15625 119.23828125 345.15625 119.23828125 346.15625 120.23828125 C346.25393425 121.92311336 346.28072251 123.61208077 346.2804485 125.29974228 C346.28269579 126.40572082 346.28494308 127.51169936 346.28725848 128.6511924 C346.28331796 130.50027086 346.28331796 130.50027086 346.27929783 132.38670444 C346.28045167 133.68790603 346.28160552 134.98910761 346.28279433 136.32973954 C346.2858836 139.97441522 346.28267157 143.6190633 346.27851619 147.26373694 C346.27509915 151.21635593 346.2774495 155.16897197 346.27909368 159.12159151 C346.28117346 166.0599155 346.27951339 172.99823095 346.27545547 179.93655396 C346.26943812 190.25370231 346.26911802 200.57084523 346.26999746 210.88799502 C346.27131362 228.24028895 346.2679614 245.59257908 346.26198006 262.9448719 C346.25606998 280.13434938 346.25221552 297.32382527 346.25112724 314.51330376 C346.2510585 315.58072204 346.25098976 316.64814032 346.25091894 317.74790461 C346.25058062 323.16843023 346.25027923 328.58895586 346.24999207 334.00948148 C346.24788973 372.43739303 346.24114703 410.86530251 346.23168945 449.29321289 C346.22251017 486.63338205 346.21542404 523.97355064 346.21118164 561.3137207 C346.21098435 563.03915799 346.21098435 563.03915799 346.21078308 564.7994526 C346.2094646 576.35079092 346.20818878 587.90212924 346.20694422 599.45346756 C346.20440777 622.98642937 346.20158652 646.51939115 346.19859314 670.05235291 C346.19845585 671.13444209 346.19831856 672.21653127 346.19817711 673.33141103 C346.19104458 729.34900325 346.17968322 785.36659451 346.1673584 841.38418579 C346.16709829 842.56659265 346.16709829 842.56659265 346.16683293 843.77288651 C346.16341816 859.26135145 346.1598162 874.74981634 346.15625 890.23828125 C309.85625 890.23828125 273.55625 890.23828125 236.15625 890.23828125 C235.49625 891.88828125 234.83625 893.53828125 234.15625 895.23828125 C233.50411461 896.57878177 232.84245031 897.91489493 232.15625 899.23828125 C231.49625 899.23828125 230.83625 899.23828125 230.15625 899.23828125 C230.04216797 900.04652344 230.04216797 900.04652344 229.92578125 900.87109375 C218.91839313 934.73138411 169.52338338 964.80616678 140.15625 980.23828125 C134.55900428 983.05692108 128.87130227 985.66910211 123.15625 988.23828125 C122.17785156 988.68816406 121.19945312 989.13804687 120.19140625 989.6015625 C104.63272529 996.45452528 88.31642444 1000.64313721 71.71875 1004.05078125 C70.65185944 1004.27118073 70.65185944 1004.27118073 69.56341553 1004.49603271 C52.075461 1008.07821915 35.25317524 1009.64835615 17.40625 1009.61328125 C16.36578522 1009.61273743 15.32532043 1009.6121936 14.25332642 1009.6116333 C-2.13329224 1009.5722927 -17.77191547 1008.65439102 -33.84375 1005.23828125 C-34.91206055 1005.02397461 -35.98037109 1004.80966797 -37.08105469 1004.58886719 C-57.01953251 1000.5565639 -76.41562856 994.91501728 -94.84375 986.23828125 C-96.46994087 985.48934182 -98.09623878 984.74063473 -99.72265625 983.9921875 C-108.02140372 980.12655387 -116.17548689 976.27057891 -123.84375 971.23828125 C-124.38386719 970.89216797 -124.92398438 970.54605469 -125.48046875 970.18945312 C-147.68186644 955.95840537 -168.49578436 939.01268942 -184.84375 918.23828125 C-185.29524414 917.66899902 -185.74673828 917.0997168 -186.21191406 916.51318359 C-187.6166602 914.73914852 -189.01296586 912.95882814 -190.40625 911.17578125 C-190.84831787 910.61536133 -191.29038574 910.05494141 -191.74584961 909.47753906 C-194.84375 905.47030473 -194.84375 905.47030473 -194.84375 903.23828125 C-195.50375 903.23828125 -196.16375 903.23828125 -196.84375 903.23828125 C-197.12642227 902.38816467 -197.40909454 901.5380481 -197.70033264 900.66217041 C-199.11404242 896.80100946 -200.50276518 893.69513166 -203.84375 891.23828125 C-211.65702219 888.79032028 -220.50956254 889.70685373 -228.58984375 889.84765625 C-231.04607194 889.8475999 -233.50230522 889.84225666 -235.95851135 889.83184814 C-242.41210094 889.81867623 -248.86311673 889.87720638 -255.31622314 889.95074463 C-261.90542711 890.01312414 -268.49453702 890.00760003 -275.08398438 890.0078125 C-288.00467589 890.01822624 -300.9238033 890.10209219 -313.84375 890.23828125 C-313.8608804 816.84297237 -313.87678112 743.44766325 -313.88609314 670.05235291 C-313.8862312 668.96699305 -313.88636925 667.8816332 -313.88651149 666.76338366 C-313.88950403 643.17858862 -313.89227427 619.59379355 -313.89481533 596.00899846 C-313.89606272 584.44390587 -313.89735927 572.87881328 -313.89868164 561.3137207 C-313.8988124 560.16282259 -313.89894316 559.01192447 -313.89907788 557.82615066 C-313.90334325 520.48674636 -313.91085754 483.14734358 -313.92004722 445.8079402 C-313.92946956 407.45375988 -313.93563306 369.0995804 -313.93766499 330.74539894 C-313.93795317 325.33470054 -313.9382788 319.92400215 -313.93862724 314.51330376 C-313.93869467 313.44834531 -313.93876209 312.38338686 -313.93883156 311.28615695 C-313.9400157 294.1067563 -313.94466029 276.92735823 -313.95058203 259.74795864 C-313.95645452 242.49898635 -313.95872169 225.25001664 -313.95725138 208.00104339 C-313.95648775 197.73882521 -313.95854562 187.47661639 -313.96454754 177.21439989 C-313.96827751 170.37261776 -313.96842781 163.5308418 -313.96558181 156.68905925 C-313.96406166 152.7821595 -313.96417884 148.87527752 -313.96863318 144.96837962 C-313.97337879 140.77447443 -313.97051679 136.58061064 -313.96679783 132.38670444 C-313.96942484 131.15398547 -313.97205186 129.92126649 -313.97475848 128.6511924 C-313.97251118 127.54521386 -313.97026389 126.43923532 -313.9679485 125.29974228 C-313.96810448 124.33905762 -313.96826046 123.37837295 -313.96842116 122.38857663 C-313.84375 120.23828125 -313.84375 120.23828125 -312.84375 119.23828125 C-311.42696089 119.14277427 -310.00543759 119.11639642 -308.58543396 119.11802673 C-307.20765778 119.11596474 -307.20765778 119.11596474 -305.80204773 119.11386108 C-304.27859489 119.119254 -304.27859489 119.119254 -302.72436523 119.12475586 C-301.66108002 119.12460983 -300.5977948 119.12446381 -299.50228882 119.12431335 C-295.96895342 119.125013 -292.43567 119.13280782 -288.90234375 119.140625 C-286.45996632 119.142489 -284.01758851 119.14391298 -281.57521057 119.14491272 C-275.13240536 119.14873936 -268.68962252 119.15857088 -262.24682617 119.1696167 C-255.67822574 119.17982769 -249.1096217 119.18440967 -242.54101562 119.18945312 C-229.64191751 119.20019302 -216.74283494 119.21708021 -203.84375 119.23828125 C-203.53614746 118.45235596 -203.22854492 117.66643066 -202.91162109 116.85668945 C-196.9676237 102.28207306 -183.66673099 88.39173494 -172.84375 77.23828125 C-172.27785156 76.64660156 -171.71195313 76.05492188 -171.12890625 75.4453125 C-163.10745177 67.07884922 -154.87698527 59.38433077 -145.546875 52.49707031 C-143.88340069 51.26758729 -142.23847448 50.01611913 -140.59375 48.76171875 C-121.15240974 34.17348307 -98.72588629 22.92017122 -75.80664062 14.93554688 C-73.88270604 14.25211937 -71.98162433 13.52332817 -70.078125 12.78515625 C-56.69013804 7.77848148 -42.64344156 5.34128943 -28.6484375 2.65625 C-27.98124191 2.52735382 -27.31404633 2.39845764 -26.62663269 2.26565552 C-17.66126822 0.57847237 -9.10692566 0.05730304 0 0 Z " fill="#FDF100" transform="translate(523.84375,35.76171875)"/>
<path d="M0 0 C5.33333333 2.66666667 10.66666667 5.33333333 16 8 C15.98428955 8.76554199 15.9685791 9.53108398 15.95239258 10.31982422 C15.88946121 13.83813892 15.85082571 17.35633462 15.8125 20.875 C15.78736328 22.07898438 15.76222656 23.28296875 15.73632812 24.5234375 C15.59356004 42.03632265 22.88060073 57.42469856 35 70 C60.20670615 94.32483888 95.90979617 102.15676696 129.61767578 105.63818359 C132.60939734 105.95821617 135.57874556 106.35678387 138.55859375 106.76953125 C143.10570945 107.26102499 146.5858423 107.34783441 151 106 C155.14077832 102.50974847 157.50047345 97.65309529 159.95703125 92.91845703 C173.84308511 67.37617911 208.34205831 42.31547834 235 32 C235.66 32.33 236.32 32.66 237 33 C235.99324219 33.55945313 234.98648438 34.11890625 233.94921875 34.6953125 C200.74141965 53.48440919 169.17821519 80.63265594 157 118 C156.71898437 118.76054687 156.43796875 119.52109375 156.1484375 120.3046875 C150.09949969 136.98509176 148.06616118 156.00872658 154 173 C154.35191406 174.05316406 154.70382812 175.10632813 155.06640625 176.19140625 C159.10075518 187.46894269 165.35898858 197.11837166 172 207 C171.46745605 207.34144043 170.93491211 207.68288086 170.38623047 208.03466797 C142.48620814 225.95624461 115.63968512 244.9626773 97 273 C96.27296875 274.07765625 95.5459375 275.1553125 94.796875 276.265625 C79.79283385 299.51616205 71.83658996 328.02461083 76.68359375 355.66796875 C77.52656706 359.5360014 78.70224732 363.25941875 80 367 C80.21962402 367.64114746 80.43924805 368.28229492 80.66552734 368.94287109 C89.08983132 393.05915531 106.1938739 411.3221557 128 424 C128.60215332 424.35191406 129.20430664 424.70382812 129.82470703 425.06640625 C142.98012849 432.6537842 156.426506 437.50864848 171.125 441.25 C172.08978271 441.49637207 173.05456543 441.74274414 174.04858398 441.99658203 C189.18239555 445.68788002 203.61658965 446.31855517 219.1315918 446.26074219 C222.55861052 446.25001218 225.98510644 446.26069133 229.41210938 446.2734375 C240.13120811 446.28132832 250.48017737 446.22936638 261 444 C262.09465576 443.79117187 263.18931152 443.58234375 264.31713867 443.3671875 C267.65423706 442.72705901 270.98357303 442.05623193 274.3125 441.375 C275.44623047 441.14554688 276.57996094 440.91609375 277.74804688 440.6796875 C280.49925615 440.12248056 283.24988143 439.56256078 286 439 C282.27674883 439.5101688 278.57132823 440.06154546 274.87109375 440.71875 C251.83084377 444.80829077 228.20300229 445.56385952 204.9921875 442.2734375 C203.0302062 442.00414595 201.06182059 441.78292391 199.09375 441.5625 C165.4346038 437.66805333 130.02362391 421.22949691 108 395 C104.38639708 390.18520987 101.1663984 385.1158601 98 380 C97.4534375 379.1234375 96.906875 378.246875 96.34375 377.34375 C85.43987404 358.3253617 84.66811081 334.0288545 89 313 C89.27457031 311.56333984 89.27457031 311.56333984 89.5546875 310.09765625 C95.136525 284.42809491 111.23163458 262.62725921 129 244 C130.03253906 242.90558594 130.03253906 242.90558594 131.0859375 241.7890625 C143.41303074 229.05945193 158.40883348 218.78218607 173.3125 209.3125 C174.14330078 208.78293701 174.97410156 208.25337402 175.83007812 207.70776367 C176.60416016 207.22283447 177.37824219 206.73790527 178.17578125 206.23828125 C178.86583252 205.80555908 179.55588379 205.37283691 180.2668457 204.92700195 C182 204 182 204 184 204 C183.3709375 203.18660156 182.741875 202.37320313 182.09375 201.53515625 C166.98278614 181.51476067 159.45643079 159.8462403 162.47265625 134.71484375 C166.26753279 107.90301658 180.66801985 85.31724944 199 66 C199.44569336 65.5270752 199.89138672 65.05415039 200.35058594 64.56689453 C207.6571256 56.86167958 215.36392455 50.17111769 224 44 C224.54930176 43.60103516 225.09860352 43.20207031 225.66455078 42.79101562 C254.89155876 21.7292553 289.43685933 8.81303095 325 4 C325.74789795 3.8961499 326.4957959 3.7922998 327.26635742 3.68530273 C334.92084356 2.7680666 342.61360427 2.81390361 350.3112793 2.81469727 C352.66538861 2.81252045 355.01902058 2.79433305 357.37304688 2.77539062 C392.85046804 2.64041319 428.40234155 12.70527242 454 38 C454.72703125 38.65484375 455.4540625 39.3096875 456.203125 39.984375 C468.40770175 51.22796145 478.03640132 69.27710554 479.20336914 85.89624023 C479.30446627 89.12146656 479.32901482 92.33574053 479.3125 95.5625 C479.30686035 96.71274658 479.3012207 97.86299316 479.29541016 99.0480957 C479.08486609 113.88519831 476.0931105 126.51132048 470 140 C469.32130859 141.54107422 469.32130859 141.54107422 468.62890625 143.11328125 C462.39355324 156.44951785 453.176681 167.49939281 443 178 C442.49597656 178.52980469 441.99195313 179.05960938 441.47265625 179.60546875 C433.56644559 187.90600414 425.17600087 195.13519575 416 202 C417.48364728 205.60085205 419.46741 207.46163297 422.4375 209.9375 C434.32744082 220.4013352 443.59088914 232.86429911 449.8125 247.4375 C450.10286133 248.10491211 450.39322266 248.77232422 450.69238281 249.45996094 C458.26351197 268.09727416 457.2290287 292.12308523 451 311 C450.75330566 311.76892578 450.50661133 312.53785156 450.25244141 313.33007812 C443.50472641 333.99158973 432.38378717 351.66168938 417.46484375 367.3828125 C415.49356705 369.47592722 413.6338744 371.5913117 411.8125 373.8125 C409.27483614 376.81480653 406.44183598 379.2656996 403.4453125 381.80078125 C400.90588447 384.08464384 398.53625207 386.48107136 396.15429688 388.92651367 C388.91320171 396.34744394 381.33675867 402.84828829 373 409 C372.42781738 409.42764648 371.85563477 409.85529297 371.26611328 410.29589844 C352.24541191 424.47155232 331.36709606 436.19114985 309.04443359 444.25927734 C307.15497555 444.94385051 305.27429296 445.65251545 303.39453125 446.36328125 C250.34425589 466.08162295 185.5579798 470.47020517 133 447 C103.87707785 433.4824133 78.46590311 412.89423893 67 382 C66.443125 380.53046875 66.443125 380.53046875 65.875 379.03125 C56.26147572 352.16993217 60.96397665 323.07259393 72.5625 297.625 C89.51375279 262.01670797 120.54529151 234.74582418 154 215 C152.76850823 211.64244226 151.38469383 208.98273528 149.25 206.125 C137.52976284 188.96015389 133.78132363 166.63133779 136.49609375 146.28125 C138.96732703 134.10658661 142.79311704 122.26727364 148 111 C147.41549072 111.02618408 146.83098145 111.05236816 146.22875977 111.0793457 C104.23163232 112.67550325 55.25589525 104.0175086 22.75 75.5625 C21.15241609 74.05664339 19.5682915 72.53633989 18 71 C17.31292969 70.34902344 16.62585938 69.69804687 15.91796875 69.02734375 C0.66574548 53.41412111 -2.51790326 34.26092291 -2.30078125 13.3203125 C-2.15013058 8.61563513 -1.33693139 4.50615121 0 0 Z " fill="#EC1A3B" transform="translate(291,354)"/>
<path d="M0 0 C1.2413269 -0.00807175 2.48265381 -0.01614349 3.76159668 -0.02445984 C6.39069238 -0.03825895 9.01980569 -0.04899966 11.64892578 -0.05688477 C14.2922647 -0.06564313 16.93432 -0.08862111 19.57763672 -0.1184082 C36.88755333 -0.31301159 53.20123495 0.68764036 70.15625 4.23828125 C72.05431396 4.61569458 72.05431396 4.61569458 73.99072266 5.00073242 C76.91664889 5.60949276 79.81688394 6.27441857 82.71875 6.98828125 C83.73702881 7.23650635 84.75530762 7.48473145 85.80444336 7.74047852 C136.38893382 20.50661294 185.87215662 49.81823783 218.15625 91.23828125 C218.57390625 91.77372559 218.9915625 92.30916992 219.421875 92.86083984 C227.15625 102.82292451 227.15625 102.82292451 227.15625 105.23828125 C227.81625 105.23828125 228.47625 105.23828125 229.15625 105.23828125 C229.51546036 106.15986023 229.87467072 107.08143921 230.24476624 108.03094482 C231.98084962 112.17989966 233.52290697 115.48405808 237.15625 118.23828125 C244.82188534 120.80168025 253.56509245 119.86163424 261.52734375 119.69140625 C263.93489742 119.68705586 266.34246829 119.68858542 268.75001526 119.69573975 C275.07197713 119.69943631 281.39074511 119.62634453 287.7119751 119.53619385 C294.16394237 119.45655746 300.61597081 119.44465243 307.06835938 119.4296875 C314.30656574 119.41134391 321.54402612 119.38634648 328.78184509 119.30596924 C329.87750793 119.29493668 330.97317078 119.28390411 332.10203552 119.27253723 C334.15703133 119.25085106 336.21198984 119.22514088 338.26687622 119.19480896 C339.61468925 119.18131157 339.61468925 119.18131157 340.98973083 119.1675415 C341.77484763 119.15710941 342.55996443 119.14667732 343.36887264 119.13592911 C345.15625 119.23828125 345.15625 119.23828125 346.15625 120.23828125 C346.25393425 121.92311336 346.28072251 123.61208077 346.2804485 125.29974228 C346.28269579 126.40572082 346.28494308 127.51169936 346.28725848 128.6511924 C346.28331796 130.50027086 346.28331796 130.50027086 346.27929783 132.38670444 C346.28045167 133.68790603 346.28160552 134.98910761 346.28279433 136.32973954 C346.2858836 139.97441522 346.28267157 143.6190633 346.27851619 147.26373694 C346.27509915 151.21635593 346.2774495 155.16897197 346.27909368 159.12159151 C346.28117346 166.0599155 346.27951339 172.99823095 346.27545547 179.93655396 C346.26943812 190.25370231 346.26911802 200.57084523 346.26999746 210.88799502 C346.27131362 228.24028895 346.2679614 245.59257908 346.26198006 262.9448719 C346.25606998 280.13434938 346.25221552 297.32382527 346.25112724 314.51330376 C346.2510585 315.58072204 346.25098976 316.64814032 346.25091894 317.74790461 C346.25058062 323.16843023 346.25027923 328.58895586 346.24999207 334.00948148 C346.24788973 372.43739303 346.24114703 410.86530251 346.23168945 449.29321289 C346.22251017 486.63338205 346.21542404 523.97355064 346.21118164 561.3137207 C346.21098435 563.03915799 346.21098435 563.03915799 346.21078308 564.7994526 C346.2094646 576.35079092 346.20818878 587.90212924 346.20694422 599.45346756 C346.20440777 622.98642937 346.20158652 646.51939115 346.19859314 670.05235291 C346.19845585 671.13444209 346.19831856 672.21653127 346.19817711 673.33141103 C346.19104458 729.34900325 346.17968322 785.36659451 346.1673584 841.38418579 C346.16709829 842.56659265 346.16709829 842.56659265 346.16683293 843.77288651 C346.16341816 859.26135145 346.1598162 874.74981634 346.15625 890.23828125 C309.85625 890.23828125 273.55625 890.23828125 236.15625 890.23828125 C235.49625 891.88828125 234.83625 893.53828125 234.15625 895.23828125 C233.50411461 896.57878177 232.84245031 897.91489493 232.15625 899.23828125 C231.49625 899.23828125 230.83625 899.23828125 230.15625 899.23828125 C230.04216797 900.04652344 230.04216797 900.04652344 229.92578125 900.87109375 C218.91839313 934.73138411 169.52338338 964.80616678 140.15625 980.23828125 C134.55900428 983.05692108 128.87130227 985.66910211 123.15625 988.23828125 C122.17785156 988.68816406 121.19945312 989.13804687 120.19140625 989.6015625 C104.63272529 996.45452528 88.31642444 1000.64313721 71.71875 1004.05078125 C70.65185944 1004.27118073 70.65185944 1004.27118073 69.56341553 1004.49603271 C52.075461 1008.07821915 35.25317524 1009.64835615 17.40625 1009.61328125 C16.36578522 1009.61273743 15.32532043 1009.6121936 14.25332642 1009.6116333 C-2.13329224 1009.5722927 -17.77191547 1008.65439102 -33.84375 1005.23828125 C-34.91206055 1005.02397461 -35.98037109 1004.80966797 -37.08105469 1004.58886719 C-57.01953251 1000.5565639 -76.41562856 994.91501728 -94.84375 986.23828125 C-96.46994087 985.48934182 -98.09623878 984.74063473 -99.72265625 983.9921875 C-108.02140372 980.12655387 -116.17548689 976.27057891 -123.84375 971.23828125 C-124.38386719 970.89216797 -124.92398438 970.54605469 -125.48046875 970.18945312 C-147.68186644 955.95840537 -168.49578436 939.01268942 -184.84375 918.23828125 C-185.29524414 917.66899902 -185.74673828 917.0997168 -186.21191406 916.51318359 C-187.6166602 914.73914852 -189.01296586 912.95882814 -190.40625 911.17578125 C-190.84831787 910.61536133 -191.29038574 910.05494141 -191.74584961 909.47753906 C-194.84375 905.47030473 -194.84375 905.47030473 -194.84375 903.23828125 C-195.50375 903.23828125 -196.16375 903.23828125 -196.84375 903.23828125 C-197.12642227 902.38816467 -197.40909454 901.5380481 -197.70033264 900.66217041 C-199.11404242 896.80100946 -200.50276518 893.69513166 -203.84375 891.23828125 C-211.65702219 888.79032028 -220.50956254 889.70685373 -228.58984375 889.84765625 C-231.04607194 889.8475999 -233.50230522 889.84225666 -235.95851135 889.83184814 C-242.41210094 889.81867623 -248.86311673 889.87720638 -255.31622314 889.95074463 C-261.90542711 890.01312414 -268.49453702 890.00760003 -275.08398438 890.0078125 C-288.00467589 890.01822624 -300.9238033 890.10209219 -313.84375 890.23828125 C-313.8608804 816.84297237 -313.87678112 743.44766325 -313.88609314 670.05235291 C-313.8862312 668.96699305 -313.88636925 667.8816332 -313.88651149 666.76338366 C-313.88950403 643.17858862 -313.89227427 619.59379355 -313.89481533 596.00899846 C-313.89606272 584.44390587 -313.89735927 572.87881328 -313.89868164 561.3137207 C-313.8988124 560.16282259 -313.89894316 559.01192447 -313.89907788 557.82615066 C-313.90334325 520.48674636 -313.91085754 483.14734358 -313.92004722 445.8079402 C-313.92946956 407.45375988 -313.93563306 369.0995804 -313.93766499 330.74539894 C-313.93795317 325.33470054 -313.9382788 319.92400215 -313.93862724 314.51330376 C-313.93869467 313.44834531 -313.93876209 312.38338686 -313.93883156 311.28615695 C-313.9400157 294.1067563 -313.94466029 276.92735823 -313.95058203 259.74795864 C-313.95645452 242.49898635 -313.95872169 225.25001664 -313.95725138 208.00104339 C-313.95648775 197.73882521 -313.95854562 187.47661639 -313.96454754 177.21439989 C-313.96827751 170.37261776 -313.96842781 163.5308418 -313.96558181 156.68905925 C-313.96406166 152.7821595 -313.96417884 148.87527752 -313.96863318 144.96837962 C-313.97337879 140.77447443 -313.97051679 136.58061064 -313.96679783 132.38670444 C-313.96942484 131.15398547 -313.97205186 129.92126649 -313.97475848 128.6511924 C-313.97251118 127.54521386 -313.97026389 126.43923532 -313.9679485 125.29974228 C-313.96810448 124.33905762 -313.96826046 123.37837295 -313.96842116 122.38857663 C-313.84375 120.23828125 -313.84375 120.23828125 -312.84375 119.23828125 C-311.42696089 119.14277427 -310.00543759 119.11639642 -308.58543396 119.11802673 C-307.20765778 119.11596474 -307.20765778 119.11596474 -305.80204773 119.11386108 C-304.27859489 119.119254 -304.27859489 119.119254 -302.72436523 119.12475586 C-301.66108002 119.12460983 -300.5977948 119.12446381 -299.50228882 119.12431335 C-295.96895342 119.125013 -292.43567 119.13280782 -288.90234375 119.140625 C-286.45996632 119.142489 -284.01758851 119.14391298 -281.57521057 119.14491272 C-275.13240536 119.14873936 -268.68962252 119.15857088 -262.24682617 119.1696167 C-255.67822574 119.17982769 -249.1096217 119.18440967 -242.54101562 119.18945312 C-229.64191751 119.20019302 -216.74283494 119.21708021 -203.84375 119.23828125 C-203.53614746 118.45235596 -203.22854492 117.66643066 -202.91162109 116.85668945 C-196.9676237 102.28207306 -183.66673099 88.39173494 -172.84375 77.23828125 C-172.27785156 76.64660156 -171.71195313 76.05492188 -171.12890625 75.4453125 C-163.10745177 67.07884922 -154.87698527 59.38433077 -145.546875 52.49707031 C-143.88340069 51.26758729 -142.23847448 50.01611913 -140.59375 48.76171875 C-121.15240974 34.17348307 -98.72588629 22.92017122 -75.80664062 14.93554688 C-73.88270604 14.25211937 -71.98162433 13.52332817 -70.078125 12.78515625 C-56.69013804 7.77848148 -42.64344156 5.34128943 -28.6484375 2.65625 C-27.98124191 2.52735382 -27.31404633 2.39845764 -26.62663269 2.26565552 C-17.66126822 0.57847237 -9.10692566 0.05730304 0 0 Z M-33.84375 20.23828125 C-35.50632446 20.49546074 -37.17344736 20.72482296 -38.84375 20.92578125 C-55.30146158 23.56561469 -71.54677234 29.73910227 -86.84375 36.23828125 C-87.53065918 36.52751465 -88.21756836 36.81674805 -88.92529297 37.11474609 C-123.06698648 51.71009868 -154.69382866 76.50543104 -176.84375 106.23828125 C-177.27574707 106.81481445 -177.70774414 107.39134766 -178.15283203 107.98535156 C-184.69470169 116.7656859 -190.18271269 125.80321907 -195.84375 135.23828125 C-246.33375 135.73328125 -246.33375 135.73328125 -297.84375 136.23828125 C-297.84375 379.77828125 -297.84375 623.31828125 -297.84375 874.23828125 C-263.85375 874.56828125 -229.86375 874.89828125 -194.84375 875.23828125 C-191.21375 881.17828125 -187.58375 887.11828125 -183.84375 893.23828125 C-181.73568062 896.26495069 -179.68072524 899.17160708 -177.40625 902.05078125 C-176.86895264 902.74179932 -176.33165527 903.43281738 -175.77807617 904.14477539 C-170.90495138 910.32690634 -165.69900649 916.15840576 -160.22412109 921.81103516 C-158.92512642 923.15414143 -157.64357609 924.51405667 -156.36328125 925.875 C-149.7473602 932.7499457 -142.46345869 938.53537648 -134.84375 944.23828125 C-133.99272705 944.88047607 -133.99272705 944.88047607 -133.12451172 945.53564453 C-102.1603252 968.77443193 -65.87842624 983.50232129 -27.84375 990.23828125 C-27.15410156 990.36138672 -26.46445312 990.48449219 -25.75390625 990.61132812 C-11.60714386 993.05591181 2.82561592 993.50016862 17.15625 993.55078125 C18.24110184 993.55470886 18.24110184 993.55470886 19.34786987 993.55871582 C47.91856554 993.56962528 75.11353454 988.23034697 102.15625 979.23828125 C103.39375 978.83738281 104.63125 978.43648437 105.90625 978.0234375 C115.11649109 974.91498113 123.59180243 970.78237769 132.15625 966.23828125 C133.38480713 965.59101074 133.38480713 965.59101074 134.63818359 964.93066406 C144.64476083 959.63428394 154.23735386 954.25953991 163.15625 947.23828125 C164.73792969 946.05105469 164.73792969 946.05105469 166.3515625 944.83984375 C173.27243113 939.64238536 179.88073801 934.20678978 186.15625 928.23828125 C186.98745361 927.45590088 186.98745361 927.45590088 187.83544922 926.65771484 C201.87802068 913.36236971 212.95061823 898.6050131 223.15625 882.23828125 C223.89746094 881.15933594 224.63867188 880.08039062 225.40234375 878.96875 C227.33640113 876.49869824 227.33640113 876.49869824 227.15625 874.23828125 C261.14625 874.23828125 295.13625 874.23828125 330.15625 874.23828125 C330.15625 630.69828125 330.15625 387.15828125 330.15625 136.23828125 C296.49625 135.90828125 262.83625 135.57828125 228.15625 135.23828125 C225.51625 130.61828125 222.87625 125.99828125 220.15625 121.23828125 C218.27844162 118.34783274 216.41207129 115.53073363 214.40625 112.73828125 C213.89876221 112.02816895 213.39127441 111.31805664 212.8684082 110.58642578 C200.02553713 92.86979901 184.75915586 77.22707688 167.15625 64.23828125 C166.04939098 63.40115826 164.94261963 62.56391933 163.8359375 61.7265625 C148.51122253 50.29735473 131.77687071 41.55237386 114.15625 34.23828125 C112.89192139 33.71041016 112.89192139 33.71041016 111.60205078 33.171875 C81.80518491 20.8835727 51.61345143 15.82011119 19.53125 15.98828125 C18.0133638 15.99193695 18.0133638 15.99193695 16.46481323 15.9956665 C-8.97396064 15.71761893 -8.97396064 15.71761893 -33.84375 20.23828125 Z " fill="#0C0C0B" transform="translate(523.84375,35.76171875)"/>
<path d="M0 0 C0.97195313 -0.01160156 1.94390625 -0.02320313 2.9453125 -0.03515625 C13.00175206 0.00539391 20.17832855 2.16785024 27.48828125 9.22265625 C32.71043638 15.18002163 33.03792205 21.78825906 32.84765625 29.53125 C30.74534724 46.62771333 19.80567148 62.28924851 9.375 75.375 C8.49714844 76.55449219 8.49714844 76.55449219 7.6015625 77.7578125 C2.71190413 83.97892714 -2.72272461 86.75083762 -10.5703125 87.75 C-14.68451997 87.92553952 -17.64956275 87.8967455 -21.3125 85.9375 C-23.35175605 81.95609534 -23.769293 78.73184229 -22.625 74.375 C-20.98219625 72.05869222 -19.10533126 70.16451951 -17.11328125 68.140625 C-6.7086279 56.57626931 2.34468955 40.88237123 4.375 25.375 C-5.61528877 24.70996598 -12.76235218 25.73680839 -21.625 30.375 C-22.22538086 30.68083008 -22.82576172 30.98666016 -23.44433594 31.30175781 C-31.4715663 35.42340834 -38.95268115 40.10610845 -46.1875 45.5 C-46.82977539 45.97832275 -47.47205078 46.45664551 -48.13378906 46.94946289 C-55.86994332 52.87883125 -64.10174336 59.77110101 -66.10546875 69.7734375 C-66.35915317 73.90095152 -66.34446741 75.55730272 -63.5078125 78.78125 C-60.34604133 81.6259872 -57.13253187 84.39119852 -53.875 87.125 C-32.87608621 105.01764692 -32.87608621 105.01764692 -31.38671875 117.34765625 C-30.87411892 131.7813884 -39.85032335 142.84132424 -49.1796875 152.9296875 C-68.96509146 172.71509146 -94.31414404 183.63485939 -122.17016602 183.76220703 C-129.85214523 183.63567864 -135.53583168 182.20920818 -141.25390625 176.84765625 C-146.127738 171.39063095 -146.98897336 166.92171031 -146.9375 159.75 C-146.93186035 158.94038818 -146.9262207 158.13077637 -146.92041016 157.29663086 C-146.61155004 142.05698351 -139.23887508 130.77890622 -129.625 119.375 C-129.19445312 118.79878906 -128.76390625 118.22257812 -128.3203125 117.62890625 C-124.35214495 112.36082174 -118.25481534 107.50971839 -111.625 106.375 C-105.99638499 105.89908458 -101.15355048 105.55403553 -96.625 109.375 C-94.625 112.375 -94.625 112.375 -94.58984375 114.96484375 C-96.11882236 120.00181857 -99.08893332 123.72928996 -102.1875 127.9375 C-103.46753227 129.71942596 -104.7448813 131.50328249 -106.01953125 133.2890625 C-106.63908691 134.15563477 -107.25864258 135.02220703 -107.89697266 135.91503906 C-113.68178564 144.15010201 -119.20966696 152.23177989 -120.625 162.375 C-111.64909754 162.19993807 -104.66505077 160.32213789 -96.625 156.375 C-95.85542969 156.00375 -95.08585937 155.6325 -94.29296875 155.25 C-81.71846487 148.72485204 -67.92962099 138.44275987 -61.625 125.375 C-60.68488236 121.73627131 -60.84176546 118.74229603 -62.76171875 115.390625 C-64.08916324 113.50172473 -64.08916324 113.50172473 -65.53125 111.8203125 C-66.625 110.375 -66.625 110.375 -66.625 108.375 C-67.21410156 108.11460937 -67.80320312 107.85421875 -68.41015625 107.5859375 C-70.76075944 106.30077526 -72.22827056 104.94013183 -74.0625 103 C-76.0354529 100.95164763 -77.81402713 99.23795533 -80.125 97.5625 C-86.62519302 91.87483111 -92.42802433 83.1493522 -93.09375 74.39453125 C-93.12814582 72.99257068 -93.13781539 71.58982388 -93.125 70.1875 C-93.11855469 69.4435498 -93.11210937 68.69959961 -93.10546875 67.93310547 C-92.65731349 54.25552482 -84.49418151 42.42339883 -74.7890625 33.18359375 C-69.6600863 28.89710281 -64.14376525 25.13529666 -58.625 21.375 C-57.69300781 20.73175781 -56.76101563 20.08851563 -55.80078125 19.42578125 C-39.52524287 8.59975049 -19.72978755 -0.23739049 0 0 Z " fill="#030301" transform="translate(443.625,160.625)"/>
<path d="M0 0 C5.33333333 2.66666667 10.66666667 5.33333333 16 8 C15.98428955 8.76554199 15.9685791 9.53108398 15.95239258 10.31982422 C15.88946121 13.83813892 15.85082571 17.35633462 15.8125 20.875 C15.78736328 22.07898438 15.76222656 23.28296875 15.73632812 24.5234375 C15.59356004 42.03632265 22.88060073 57.42469856 35 70 C60.20670615 94.32483888 95.90979617 102.15676696 129.61767578 105.63818359 C132.60939734 105.95821617 135.57874556 106.35678387 138.55859375 106.76953125 C143.10570945 107.26102499 146.5858423 107.34783441 151 106 C155.14077832 102.50974847 157.50047345 97.65309529 159.95703125 92.91845703 C173.84308511 67.37617911 208.34205831 42.31547834 235 32 C235.66 32.33 236.32 32.66 237 33 C235.99324219 33.55945313 234.98648438 34.11890625 233.94921875 34.6953125 C200.74141965 53.48440919 169.17821519 80.63265594 157 118 C156.71898437 118.76054687 156.43796875 119.52109375 156.1484375 120.3046875 C150.09949969 136.98509176 148.06616118 156.00872658 154 173 C154.35191406 174.05316406 154.70382812 175.10632813 155.06640625 176.19140625 C159.10075518 187.46894269 165.35898858 197.11837166 172 207 C171.46745605 207.34144043 170.93491211 207.68288086 170.38623047 208.03466797 C142.48620814 225.95624461 115.63968512 244.9626773 97 273 C96.27296875 274.07765625 95.5459375 275.1553125 94.796875 276.265625 C79.79283385 299.51616205 71.83658996 328.02461083 76.68359375 355.66796875 C77.52656706 359.5360014 78.70224732 363.25941875 80 367 C80.21962402 367.64114746 80.43924805 368.28229492 80.66552734 368.94287109 C89.08983132 393.05915531 106.1938739 411.3221557 128 424 C128.60215332 424.35191406 129.20430664 424.70382812 129.82470703 425.06640625 C142.98012849 432.6537842 156.426506 437.50864848 171.125 441.25 C172.08978271 441.49637207 173.05456543 441.74274414 174.04858398 441.99658203 C189.18239555 445.68788002 203.61658965 446.31855517 219.1315918 446.26074219 C222.55861052 446.25001218 225.98510644 446.26069133 229.41210938 446.2734375 C240.13481689 446.28113559 250.47425991 446.21341277 261 444 C262.5303186 443.71866211 262.5303186 443.71866211 264.09155273 443.43164062 C267.21306229 442.85763655 270.32509213 442.24630189 273.4375 441.625 C274.45392578 441.4290625 275.47035156 441.233125 276.51757812 441.03125 C289.03042571 438.54285488 301.12789112 434.7431961 313.21435547 430.70043945 C315.1293962 430.06103216 317.04698781 429.4297339 318.96484375 428.79882812 C344.35331553 420.34036199 368.6680215 408.34052906 389.64453125 391.6171875 C392 390 392 390 395 390 C372.51698979 414.36823157 339.94092987 433.09229081 309.04443359 444.25927734 C307.15497555 444.94385051 305.27429296 445.65251545 303.39453125 446.36328125 C250.34425589 466.08162295 185.5579798 470.47020517 133 447 C103.87707785 433.4824133 78.46590311 412.89423893 67 382 C66.443125 380.53046875 66.443125 380.53046875 65.875 379.03125 C56.26147572 352.16993217 60.96397665 323.07259393 72.5625 297.625 C89.51375279 262.01670797 120.54529151 234.74582418 154 215 C152.76850823 211.64244226 151.38469383 208.98273528 149.25 206.125 C137.52976284 188.96015389 133.78132363 166.63133779 136.49609375 146.28125 C138.96732703 134.10658661 142.79311704 122.26727364 148 111 C147.41549072 111.02618408 146.83098145 111.05236816 146.22875977 111.0793457 C104.23163232 112.67550325 55.25589525 104.0175086 22.75 75.5625 C21.15241609 74.05664339 19.5682915 72.53633989 18 71 C17.31292969 70.34902344 16.62585938 69.69804687 15.91796875 69.02734375 C0.66574548 53.41412111 -2.51790326 34.26092291 -2.30078125 13.3203125 C-2.15013058 8.61563513 -1.33693139 4.50615121 0 0 Z " fill="#060602" transform="translate(291,354)"/>
<path d="M0 0 C4.82106936 0.55323747 7.337157 2.14370477 10.8125 5.4375 C13.14924217 8.4057941 14.61069378 10.70150084 15.609375 14.34375 C17.043846 18.03238973 18.71179035 19.50608048 21.75 22 C26.61396438 26.01868044 29.53601669 28.94915017 30.25 35.375 C30.41487566 40.72796309 26.729774 44.43619003 23.296875 48.18359375 C22.39453125 49.07175781 21.4921875 49.95992188 20.5625 50.875 C20.08304932 51.34873047 19.60359863 51.82246094 19.10961914 52.31054688 C15.65622221 55.6943119 12.08770339 58.90926433 8.37109375 62 C6.56678903 63.55088063 6.56678903 63.55088063 4.8125 66.4375 C8.25171333 64.33075879 11.68945512 62.22163617 15.12631226 60.11105347 C16.93114126 59.0039007 18.73760429 57.89945026 20.54418945 56.79516602 C28.05910294 52.19365214 28.05910294 52.19365214 35.41015625 47.3359375 C36.34867432 46.69676392 36.34867432 46.69676392 37.30615234 46.04467773 C38.87536755 44.96106429 40.42867785 43.85451582 41.98046875 42.74609375 C45.70094284 41.02697814 47.89023561 41.43273662 51.8125 42.4375 C54.8125 44.625 54.8125 44.625 56.8125 47.4375 C56.69456234 51.07391111 56.23281865 52.92674394 53.90625 55.75390625 C50.90407963 58.35367728 47.89712382 60.93629598 44.8125 63.4375 C44.16587402 63.96359863 43.51924805 64.48969727 42.85302734 65.03173828 C12.8808256 89.17857728 12.8808256 89.17857728 -3.5625 89.9375 C-10.78442349 88.94137262 -16.27599588 85.73777753 -21.1875 80.4375 C-23.43873048 76.584723 -23.84906651 73.92145077 -23.1875 69.4375 C-21.26312258 66.08133323 -18.76211472 63.31169046 -16.1875 60.4375 C-15.52016846 59.68194824 -15.52016846 59.68194824 -14.83935547 58.91113281 C-8.35821555 51.59535068 -1.61803517 44.79948475 5.8125 38.4375 C4.28677344 35.11114118 2.87905496 33.48186998 -0.1875 31.4375 C-0.1875 32.0975 -0.1875 32.7575 -0.1875 33.4375 C-1.515625 34.7421875 -1.515625 34.7421875 -3.4375 36.3125 C-7.10208152 39.42868464 -10.55119206 42.71175552 -13.9375 46.125 C-14.44410156 46.63490479 -14.95070313 47.14480957 -15.47265625 47.67016602 C-17.04625839 49.25732519 -18.61731489 50.84696064 -20.1875 52.4375 C-26.09886831 58.42549716 -31.97403284 64.36839795 -38.38623047 69.828125 C-40.29906963 71.53718379 -42.03996324 73.33938483 -43.78515625 75.21875 C-44.35943359 75.83234375 -44.93371094 76.4459375 -45.52539062 77.078125 C-46.69258451 78.33652656 -47.84595626 79.607867 -48.98632812 80.890625 C-53.27960556 85.41088111 -53.27960556 85.41088111 -57.91796875 85.546875 C-61.171164 84.44304292 -62.32011262 83.77024724 -64.4375 81.1875 C-67.00043301 78.84781769 -67.00043301 78.84781769 -70.3359375 78.5 C-73.34726372 79.33595176 -76.2468126 80.37729628 -79.1875 81.4375 C-107.19188132 90.55670962 -107.19188132 90.55670962 -116.60546875 86.359375 C-122.11713058 82.59531326 -127.06968385 76.79094846 -129.1875 70.4375 C-130.35797015 58.1475634 -124.42201767 48.7287086 -116.83984375 39.53125 C-104.47125702 24.98102556 -86.70774669 10.22767596 -66.85546875 8.19921875 C-60.98436272 8.02354786 -56.71104213 8.48947214 -52.1875 12.4375 C-46.90969691 18.34589775 -45.67129135 23.69915008 -45.796875 31.55859375 C-46.63146305 37.70950766 -49.9405144 41.60424508 -54.6484375 45.4453125 C-68.57529523 54.98261622 -84.04748061 54.70404859 -100.1875 52.4375 C-102.10955381 57.02085908 -103.64480076 61.71684033 -105.1875 66.4375 C-81.2593354 63.86002889 -56.73399021 56.72385998 -38.97265625 40.01171875 C-36.29053254 37.53272924 -33.53363697 35.22493583 -30.6875 32.9375 C-25.7721367 28.97554768 -21.12326247 24.79789567 -16.5 20.50390625 C-14.1875 18.4375 -14.1875 18.4375 -11.1875 16.4375 C-10.69734774 14.47689097 -10.21252734 12.51430703 -9.78515625 10.5390625 C-8.34982977 5.49196677 -5.30198929 0.72772402 0 0 Z " fill="#030302" transform="translate(718.1875,243.5625)"/>
<path d="M0 0 C0.80308594 0.51046875 1.60617187 1.0209375 2.43359375 1.546875 C5.89568541 3.50714608 8.91133706 3.16258729 12.75 2.9375 C21.17317231 2.69762977 26.72464233 4.33674023 33.375 9.4375 C38.00867348 13.96084793 39.54622096 17.82354674 40.4375 24.0625 C39.04766725 36.57099471 26.43788675 51.10843368 17 59 C3.0571246 70.03734829 -14.4711784 81.75313483 -33 80 C-36.68967145 79.43621319 -39.9543419 78.78424357 -43 76.5 C-44 75 -44 75 -44 73 C-47.74380121 76.44500017 -50.49597309 80.34204376 -53.375 84.5 C-53.89247803 85.24048584 -54.40995605 85.98097168 -54.94311523 86.74389648 C-56.05433338 88.33449609 -57.16390091 89.92624987 -58.27197266 91.51904297 C-60.01266216 94.01817927 -61.76098968 96.51179454 -63.51171875 99.00390625 C-71.64460312 110.58550995 -79.69820074 122.21964187 -87.66796875 133.9140625 C-94.60260247 144.07206549 -101.73161485 154.07815818 -109 164 C-109.69222656 164.95390625 -110.38445312 165.9078125 -111.09765625 166.890625 C-119.88552345 178.66116239 -119.88552345 178.66116239 -125.96875 180.640625 C-132.03804799 181.17048435 -136.4552563 177.63956653 -141 174 C-143 172 -143 172 -143.05078125 169.0234375 C-142.05683925 163.45103328 -138.4084475 159.13385503 -135.1875 154.625 C-134.50896973 153.65401367 -133.83043945 152.68302734 -133.13134766 151.68261719 C-131.0991631 148.78004145 -129.05046154 145.88967997 -127 143 C-125.92962007 141.47231281 -124.86048615 139.94375134 -123.79296875 138.4140625 C-112.7002763 122.55530827 -101.25918462 106.94553119 -89.75732422 91.38232422 C-88.0224021 89.0303695 -86.29344856 86.67415161 -84.56640625 84.31640625 C-76.42897578 73.21633589 -68.14258977 62.23718065 -59.77001953 51.31347656 C-58.2249647 49.29403662 -56.68666586 47.26978388 -55.15234375 45.2421875 C-47.23894812 34.81165695 -38.81551003 24.87151001 -29.97265625 15.21875 C-28.60726912 13.68302745 -27.2918785 12.10192875 -26.01953125 10.48828125 C-18.70016531 1.4700296 -11.74962771 -2.10890754 0 0 Z " fill="#030301" transform="translate(557,251)"/>
<path d="M0 0 C-0.6077124 0.27561768 -1.2154248 0.55123535 -1.84155273 0.83520508 C-24.64227617 11.25305469 -44.73011599 23.74996597 -63 41 C-63.85980469 41.78375 -64.71960938 42.5675 -65.60546875 43.375 C-87.68005496 64.2710008 -103.13629237 93.48866447 -104.33251953 124.09155273 C-104.72121952 143.84153338 -97.77774783 162.46100763 -85.56640625 177.8984375 C-84 180 -84 180 -83 183 C-83.70793701 183.42128174 -83.70793701 183.42128174 -84.43017578 183.85107422 C-103.89975134 195.47998233 -121.45564085 208.45688449 -138 224 C-138.64710938 224.59296875 -139.29421875 225.1859375 -139.9609375 225.796875 C-161.9184065 246.6203902 -178.31524865 278.73445156 -179.12890625 309.11328125 C-179.62465994 337.86391577 -170.21759918 361.33426414 -150.1875 382.125 C-145.17627454 387.02128909 -139.80105875 391.08899001 -134 395 C-133.13761719 395.59554688 -132.27523437 396.19109375 -131.38671875 396.8046875 C-91.72362913 423.24674725 -37.14887078 427.35279958 8.5625 418.4375 C9.83222656 418.18226563 11.10195313 417.92703125 12.41015625 417.6640625 C17.25395073 416.76803958 22.0868877 416.30186495 27 416 C23.30934623 418.14019871 19.36881586 419.00296705 15.25 419.9375 C14.50427734 420.10934814 13.75855469 420.28119629 12.99023438 420.45825195 C-1.43754209 423.73245775 -15.54290221 426.14071692 -30.3671875 426.203125 C-31.97849045 426.21167511 -31.97849045 426.21167511 -33.62234497 426.22039795 C-35.88982168 426.22980273 -38.15731178 426.23636383 -40.42480469 426.24023438 C-43.83033297 426.24987357 -47.23523961 426.28091382 -50.640625 426.3125 C-68.22074409 426.39932194 -84.63625994 424.6981475 -101.5625 419.8125 C-102.61477783 419.51206787 -103.66705566 419.21163574 -104.7512207 418.90209961 C-123.38349276 413.3933416 -141.27490542 404.79913022 -156 392 C-156.81984375 391.31292969 -157.6396875 390.62585938 -158.484375 389.91796875 C-176.39863397 374.47943811 -188.71433733 353.59617652 -192 330 C-192.21057333 325.93894301 -192.18510116 321.87853857 -192.1875 317.8125 C-192.19974609 316.73935547 -192.21199219 315.66621094 -192.22460938 314.56054688 C-192.24313251 304.35430018 -190.64668363 294.96623179 -187.375 285.3125 C-186.9891272 284.16865845 -186.9891272 284.16865845 -186.59545898 283.00170898 C-175.50762936 251.30487178 -152.11319818 224.30561516 -125 205 C-124.3596582 204.54189941 -123.71931641 204.08379883 -123.05957031 203.61181641 C-114.26810859 197.36346239 -105.25770791 191.53243161 -96 186 C-96.3403125 185.51273438 -96.680625 185.02546875 -97.03125 184.5234375 C-111.85028303 162.84666047 -120.88957795 140.83972763 -116.0546875 114.234375 C-109.16747846 80.77411228 -88.6371037 52.84353364 -62 32 C-61.4534375 31.57170898 -60.906875 31.14341797 -60.34375 30.70214844 C-52.87733542 24.9029503 -45.16114434 19.71348024 -37 14.9375 C-36.21109375 14.47230957 -35.4221875 14.00711914 -34.609375 13.52783203 C-30.13243039 10.96862624 -26.02353279 9.18240067 -21 8 C-21 7.34 -21 6.68 -21 6 C-18.25538312 4.79848104 -15.50547873 3.61361897 -12.75 2.4375 C-11.97269531 2.09525391 -11.19539062 1.75300781 -10.39453125 1.40039062 C-9.64042969 1.08134766 -8.88632812 0.76230469 -8.109375 0.43359375 C-7.41811523 0.13509521 -6.72685547 -0.16340332 -6.01464844 -0.47094727 C-3.64929576 -1.09209599 -2.28986553 -0.77451334 0 0 Z " fill="#F9F6F6" transform="translate(558,375)"/>
<path d="M0 0 C5.12089951 1.62161818 8.80765555 3.61052638 12 8 C12.4375 11.3125 12.4375 11.3125 11 15 C8.73784072 17.16302082 6.33344872 18.9824939 3.8203125 20.84765625 C-7.27712815 29.31675569 -16.17364639 40.88872746 -23 53 C-23 53.99 -23 54.98 -23 56 C-15.71787385 52.89835368 -10.7307677 48.38289363 -5 43 C-3.63054176 41.80611333 -2.25594929 40.61807626 -0.875 39.4375 C5.49506733 33.84302969 11.14458406 27.98105292 16.375 21.3125 C17.07761963 20.42365112 17.07761963 20.42365112 17.79443359 19.5168457 C20.16240351 16.48667451 22.40526812 13.43038612 24.50390625 10.20703125 C30.29101641 1.53967903 30.29101641 1.53967903 35.1171875 0.015625 C40.05294691 -0.20159669 43.06370712 0.40581414 47.25 3.0625 C49.55186923 6.92635193 49.80330313 8.54531903 49 13 C42.82569492 26.36992379 31.77674181 38.10664967 22 49 C21.54898926 49.50450684 21.09797852 50.00901367 20.63330078 50.52880859 C9.99588435 62.25481492 -6.20421861 74.77531379 -22.2578125 77.56640625 C-30.3554664 77.88741299 -36.8657453 75.44296869 -43.75 71.375 C-48.32609366 66.54467892 -52.2736709 61.05271735 -52.8125 54.25 C-51.6196234 37.65345606 -36.11387114 22.10470919 -24.26953125 11.77734375 C-23.18100748 10.85001084 -22.09117661 9.92420989 -21 9 C-20.47196777 8.54125488 -19.94393555 8.08250977 -19.39990234 7.60986328 C-8.21961496 -2.01135087 -8.21961496 -2.01135087 0 0 Z " fill="#030302" transform="translate(464,255)"/>
<path d="M0 0 C3.64336463 0.01612 7.28562303 0.00001799 10.92895508 -0.01904297 C31.69896011 -0.03732265 52.08387856 1.49868239 72.0793457 7.39111328 C72.82490723 7.60106934 73.57046875 7.81102539 74.33862305 8.02734375 C99.06737536 15.02087259 125.38296886 27.58042021 139.0793457 50.39111328 C140.56839862 53.17708326 141.91542201 56.00759748 143.2043457 58.89111328 C143.51194824 59.57367188 143.81955078 60.25623047 144.13647461 60.95947266 C145.31037834 63.75018407 146.15390929 65.81642805 145.7590332 68.85986328 C145.53473633 69.36517578 145.31043945 69.87048828 145.0793457 70.39111328 C144.79961914 69.62927734 144.51989258 68.86744141 144.23168945 68.08251953 C141.42172746 60.84528622 138.11639719 55.26203907 133.0793457 49.39111328 C132.46188477 48.57255859 131.84442383 47.75400391 131.20825195 46.91064453 C116.27793274 29.2408172 89.99429946 20.95369501 68.0793457 16.39111328 C67.15250977 16.19001953 66.22567383 15.98892578 65.27075195 15.78173828 C62.21341932 15.19600837 59.16916716 14.77392302 56.0793457 14.39111328 C55.37165039 14.30087891 54.66395508 14.21064453 53.93481445 14.11767578 C21.57516362 10.19850367 -11.80876161 10.99680442 -43.9206543 16.39111328 C-44.92547852 16.55659668 -45.93030273 16.72208008 -46.96557617 16.89257812 C-74.47166519 21.52254953 -102.8786277 28.06778159 -128.56518555 39.02783203 C-137.19736449 42.53496876 -146.07686639 45.46628687 -154.9206543 48.39111328 C-153.67340749 46.18118569 -152.42295182 43.97317665 -151.1706543 41.76611328 C-150.64858398 40.83992188 -150.64858398 40.83992188 -150.1159668 39.89501953 C-145.91501577 32.50445753 -143.33488611 28.02274379 -134.9206543 25.39111328 C-133.45511797 24.79951598 -131.99444406 24.1957845 -130.5378418 23.58251953 C-124.04014437 20.96292277 -117.38050156 18.95366803 -110.6706543 16.95361328 C-110.01314178 16.75724274 -109.35562927 16.56087219 -108.67819214 16.35855103 C-73.32410866 5.83753907 -36.91577964 -0.19347113 0 0 Z " fill="#FBFAF6" transform="translate(623.920654296875,185.60888671875)"/>
<path d="M0 0 C4.3152063 0.59228322 5.51879052 2.04751769 8.1875 5.4375 C12.2131803 12.29282515 11.69610094 19.55712458 11.625 27.3125 C11.62195862 28.00824127 11.61891724 28.70398254 11.61578369 29.42080688 C11.55085397 39.44177101 10.92739242 48.77513332 7.84228516 58.37841797 C7.09776567 60.71968469 6.42854786 63.07686868 5.76171875 65.44140625 C2.0361629 78.5003445 -2.22472679 90.86403202 -8.75 102.8125 C-9.15702148 103.56225098 -9.56404297 104.31200195 -9.98339844 105.08447266 C-12.78517465 110.06479095 -15.97435636 114.20269232 -19.8125 118.4375 C-25.59770596 114.88748725 -27.38248867 110.87610919 -29.12109375 104.39453125 C-33.04779539 84.72090351 -28.93202012 61.25155861 -22.8125 42.4375 C-22.5861084 41.73270508 -22.3597168 41.02791016 -22.12646484 40.30175781 C-9.43013452 1.46690981 -9.43013452 1.46690981 0 0 Z " fill="#FCEF00" transform="translate(606.8125,430.5625)"/>
<path d="M0 0 C4.31892251 1.00260701 5.79760364 2.33799039 8.5 5.8125 C18.54767412 24.90308082 9.18177501 56.19882182 3.4140625 75.2265625 C1.55191959 80.97085107 -0.89668471 86.37160404 -3.5 91.8125 C-3.98984375 92.88242187 -4.4796875 93.95234375 -4.984375 95.0546875 C-7.67164573 100.64487414 -10.68166079 105.91161481 -14.125 111.0625 C-14.4972168 111.63597168 -14.86943359 112.20944336 -15.25292969 112.80029297 C-16.3515625 114.390625 -16.3515625 114.390625 -18.5 116.8125 C-19.82 116.8125 -21.14 116.8125 -22.5 116.8125 C-31.76087894 107.27924227 -29.82857802 93.09498295 -29.71484375 80.8125 C-29.39516693 66.103395 -26.31224488 52.64590841 -21.5 38.8125 C-20.92958984 37.05873047 -20.92958984 37.05873047 -20.34765625 35.26953125 C-17.44487457 26.61982826 -13.6886848 18.57391635 -9.41064453 10.53613281 C-8.62269186 9.04472642 -7.86865183 7.53549548 -7.12109375 6.0234375 C-5.13841315 2.31981632 -4.17597683 0.96942319 0 0 Z " fill="#FCF000" transform="translate(556.5,619.1875)"/>
<path d="M0 0 C1.45055786 -0.00830841 1.45055786 -0.00830841 2.93041992 -0.01678467 C14.79352216 -0.06644534 26.19997801 0.51175753 37.9375 2.25 C40.33268959 2.52646857 42.72845876 2.798004 45.125 3.0625 C73.37568809 6.93772528 102.55068699 16.09376583 124.9375 34.25 C125.78699219 34.92417969 126.63648438 35.59835938 127.51171875 36.29296875 C140.56914411 47.27080416 149.00483153 62.46861929 151.9375 79.25 C152.1309906 81.97990004 152.09549509 84.51141847 151.9375 87.25 C151.6075 87.25 151.2775 87.25 150.9375 87.25 C150.81375 86.425 150.69 85.6 150.5625 84.75 C147.12834078 65.51870839 137.17546987 49.68458739 121.1328125 38.33984375 C104.36286608 27.37172476 87.26374412 21.12603127 67.9375 16.25 C66.73448242 15.92612305 65.53146484 15.60224609 64.29199219 15.26855469 C46.07796655 10.74744645 26.95778574 10.67719811 8.3125 10.75 C7.07214996 10.75209473 5.83179993 10.75418945 4.55386353 10.75634766 C-17.00773656 10.83098576 -37.88029837 12.2289699 -59.0625 16.25 C-60.18510223 16.46073151 -60.18510223 16.46073151 -61.3303833 16.67572021 C-85.23026613 21.19910314 -108.94059175 27.32672739 -131.703125 35.98046875 C-134.19106129 36.92067723 -136.49196417 37.64593109 -139.0625 38.25 C-138.86914062 37.693125 -138.67578125 37.13625 -138.4765625 36.5625 C-138.21617187 35.799375 -137.95578125 35.03625 -137.6875 34.25 C-137.30464844 33.13625 -137.30464844 33.13625 -136.9140625 32 C-136.02923033 29.40543322 -136.02923033 29.40543322 -135.78710938 27.26000977 C-135.43369863 25.05649374 -135.0259921 23.26626744 -134.0625 21.25 C-131.25641597 19.67739603 -129.35694802 18.94212301 -126.3125 18.1875 C-125.47960449 17.95546875 -124.64670898 17.7234375 -123.78857422 17.484375 C-120.88944398 16.69696977 -117.97860361 15.97188536 -115.0625 15.25 C-113.99354492 14.9730127 -112.92458984 14.69602539 -111.82324219 14.41064453 C-74.96841994 4.90263068 -38.03958001 0.14363544 0 0 Z " fill="#0A0A04" transform="translate(620.0625,175.75)"/>
<path d="M0 0 C5.94 0 11.88 0 18 0 C17.67 1.98 17.34 3.96 17 6 C16.7953739 9.60313887 16.81492667 13.20403566 16.8125 16.8125 C16.79413086 18.23272461 16.79413086 18.23272461 16.77539062 19.68164062 C16.75655097 28.80631523 18.15577324 36.41588019 22.5625 44.4375 C22.91183594 45.08074219 23.26117188 45.72398437 23.62109375 46.38671875 C26.98066097 52.34339822 31.09529041 57.23517517 36 62 C36.58910156 62.60972656 37.17820312 63.21945312 37.78515625 63.84765625 C62.71697495 87.90275165 104.36892017 92.63590782 137 95 C136.01 96.98 136.01 96.98 135 99 C114.04562284 100.02216474 91.99592487 97.40345689 72 91 C70.7315625 90.64292969 69.463125 90.28585937 68.15625 89.91796875 C42.85779926 82.7070016 19.76902816 68.99455408 6 46 C0.29094782 35.3077409 -1.31927885 26.13768277 -1.1875 14.125 C-1.18685547 12.98546875 -1.18621094 11.8459375 -1.18554688 10.671875 C-1.14070472 2.28140944 -1.14070472 2.28140944 0 0 Z " fill="#F9F9F6" transform="translate(307,362)"/>
<path d="M0 0 C-3.22287755 4.17780423 -6.74053772 7.84813116 -10.55859375 11.484375 C-15.34381586 16.12592993 -19.51078459 21.15939238 -23.67529297 26.35888672 C-25.09417555 28.11666938 -26.53161899 29.85799663 -27.97265625 31.59765625 C-35.78136308 41.05549648 -43.10596991 50.80875356 -50.32861328 60.71875 C-52.85598353 64.16831875 -55.42640636 67.58485756 -58 71 C-72.3146881 90.03371107 -86.3279681 109.28955773 -100.0234375 128.7734375 C-102.03897176 131.64041857 -104.06578524 134.49892163 -106.1015625 137.3515625 C-110.9051783 144.09023046 -115.67393137 150.85413797 -120.25 157.75 C-120.97703125 158.83796875 -121.7040625 159.9259375 -122.453125 161.046875 C-124.05812147 164.11095916 -124.67520702 165.61824282 -124 169 C-120.32271932 173.13460746 -115.31939231 175.67015192 -110 177 C-110.99543855 179.624338 -111.97192355 180.97605244 -114.125 182.8125 C-118.00298448 184.4142762 -121.07345897 184.19314783 -125 183 C-129.43359298 180.83550543 -134.07663451 178.01962755 -137 174 C-137.49097511 169.19288448 -136.62808091 166.70686184 -133.921875 162.76171875 C-133.2616333 161.78541504 -132.6013916 160.80911133 -131.92114258 159.80322266 C-131.20466553 158.77503418 -130.48818848 157.7468457 -129.75 156.6875 C-129.01998779 155.61806152 -128.28997559 154.54862305 -127.5378418 153.44677734 C-125.37396465 150.28686738 -123.19068359 147.14136729 -121 144 C-120.14559326 142.76805908 -120.14559326 142.76805908 -119.27392578 141.51123047 C-115.89293576 136.64247714 -112.45967885 131.81306762 -109 127 C-108.48904785 126.28714844 -107.9780957 125.57429688 -107.45166016 124.83984375 C-99.64995904 113.96111142 -91.73090173 103.17049322 -83.77490234 92.40429688 C-81.98903218 89.9851429 -80.20681718 87.56333981 -78.42578125 85.140625 C-72.78718476 77.47157749 -67.13611637 69.81209541 -61.4375 62.1875 C-60.96103027 61.5478833 -60.48456055 60.9082666 -59.99365234 60.24926758 C-57.81366362 57.34067714 -55.59736464 54.49583672 -53.2421875 51.7265625 C-50.9202467 49.13361667 -50.9202467 49.13361667 -49.6875 46.1875 C-47.62918115 42.2995644 -44.95321049 39.4633871 -41.98828125 36.23828125 C-40.27093775 34.30500458 -38.7730802 32.37827401 -37.3125 30.25 C-35.07325536 27.10295348 -32.73680138 24.71779581 -30 22 C-28.83136943 20.74633182 -27.66905009 19.48676285 -26.51171875 18.22265625 C-25.88716797 17.54396484 -25.26261719 16.86527344 -24.61914062 16.16601562 C-23.33868098 14.77162226 -22.06257569 13.37321686 -20.79101562 11.97070312 C-8.72062533 -1.09007817 -8.72062533 -1.09007817 0 0 Z " fill="#FAF9F2" transform="translate(539,254)"/>
<path d="M0 0 C4.23423779 0.56999355 6.5961288 2.2154761 9.25 5.4375 C19.13923794 22.2335073 14.30565307 45.537153 10.25 63.4375 C10.07871582 64.20771484 9.90743164 64.97792969 9.73095703 65.77148438 C4.00794604 90.68664846 -6.62291604 114.31041604 -24.75 132.4375 C-26.74958364 132.47830783 -28.75045254 132.48004356 -30.75 132.4375 C-29.43553798 128.78406879 -27.82723774 125.97274213 -25.5 122.875 C-21.5560192 117.34689441 -18.59540836 111.59116982 -15.75 105.4375 C-15.25628906 104.40238281 -14.76257813 103.36726562 -14.25390625 102.30078125 C-3.78500399 79.32358019 5.24384113 46.43734709 -2.75 21.4375 C-3.67020732 18.39925425 -3.67020732 18.39925425 -5.75 16.4375 C-8.42831401 15.43512109 -10.91214408 14.94924451 -13.75 14.4375 C-12.32442379 11.25846506 -10.5726848 8.90091568 -8.25 6.3125 C-7.6415625 5.62929688 -7.033125 4.94609375 -6.40625 4.2421875 C-2.94262673 0.46814516 -2.94262673 0.46814516 0 0 Z " fill="#080704" transform="translate(567.75,605.5625)"/>
<path d="M0 0 C5.95611589 2.28106566 8.48182755 5.54588403 11.140625 11.125 C21.437658 36.9685338 7.78639134 74.76500801 -2.33203125 98.59765625 C-7.53639722 110.29980111 -14.36952692 124.51262155 -25.0625 132.125 C-28.5 133.0625 -28.5 133.0625 -31.0625 133.125 C-31.0625 129.49645333 -30.29520998 128.82471775 -28.125 126 C-19.79274769 114.38893035 -14.02432614 101.83254467 -10.0625 88.125 C-9.54178646 86.3736623 -9.02094507 84.6223626 -8.5 82.87109375 C-7.95641744 81.01879033 -7.41473958 79.16592686 -6.875 77.3125 C-6.62468018 76.45301758 -6.37436035 75.59353516 -6.11645508 74.70800781 C-5.40010174 72.18756813 -4.71973539 69.66147122 -4.0625 67.125 C-3.86237305 66.36219727 -3.66224609 65.59939453 -3.45605469 64.81347656 C-1.82221063 57.78414746 -1.69018446 50.75112934 -1.69189453 43.56542969 C-1.68749133 41.49592485 -1.65096415 39.42850899 -1.61328125 37.359375 C-1.55195947 29.88058911 -2.05560022 24.53920715 -6.0625 18.125 C-6.0625 17.465 -6.0625 16.805 -6.0625 16.125 C-9.0325 15.465 -12.0025 14.805 -15.0625 14.125 C-4.98128173 0.20331762 -4.98128173 0.20331762 0 0 Z " fill="#070703" transform="translate(619.0625,416.875)"/>
<path d="M0 0 C-2.26611887 2.26611887 -3.5998623 2.61657326 -6.625 3.5625 C-28.92217461 11.46123767 -52.45376444 28.12648205 -62.9375 49.5625 C-66.25667821 58.15917157 -66.72143595 67.72406319 -63.85546875 76.5078125 C-59.00563117 86.71934388 -51.51014166 94.34989882 -42.375 100.875 C-37.67262454 105.08238857 -34.51975278 109.6982377 -33.125 115.875 C-33.92458377 125.22827066 -44.30065467 134.20149399 -51 140 C-57.64119657 145.23513764 -64.51211188 149.49497691 -72.125 153.125 C-72.76453613 153.43260254 -73.40407227 153.74020508 -74.06298828 154.05712891 C-78.62247514 156.12584162 -78.62247514 156.12584162 -82 155 C-81.18917969 154.52691406 -80.37835938 154.05382812 -79.54296875 153.56640625 C-66.91915969 146.02739106 -54.14773995 137.25619426 -47 124 C-46.40626411 120.50355532 -46.3506481 118.16745181 -48.1015625 115.01953125 C-52.6041397 108.79538042 -58.09945203 103.56285624 -64 98.6875 C-71.6884458 92.02915664 -77.44242775 83.54450431 -78.3125 73.33203125 C-78.94628416 58.63704132 -74.10981712 47.51952223 -64.734375 36.28515625 C-56.93200563 27.94427979 -47.68000274 21.9465251 -38 16 C-37.30680664 15.57412598 -36.61361328 15.14825195 -35.89941406 14.70947266 C-28.45360987 10.2005244 -20.83845148 6.31097664 -12.8125 2.9375 C-12.10536865 2.63803467 -11.3982373 2.33856934 -10.66967773 2.0300293 C-6.99439011 0.55060972 -3.97339878 -0.36262086 0 0 Z " fill="#FBFBF6" transform="translate(417,166)"/>
<path d="M0 0 C4.71600287 2.44533482 7.82644027 5.26354354 9.92944336 10.16723633 C18.16268028 36.95792789 9.28395853 71.2794672 -2 96 C-2.33821777 96.7429834 -2.67643555 97.4859668 -3.02490234 98.25146484 C-17.49222176 129.48283399 -17.49222176 129.48283399 -32 136 C-34.4003098 136.60916953 -36.5134511 136.84459069 -39 137 C-37.7625 135.6078125 -37.7625 135.6078125 -36.5 134.1875 C-12.93839653 106.43226218 -0.91234665 69.05407124 -0.625 32.875 C-0.61114258 31.83230957 -0.59728516 30.78961914 -0.58300781 29.71533203 C-0.62957546 22.0966192 -1.70907385 15.63388286 -5.8125 9.125 C-8.32483176 6.68444915 -10.79822148 5.38258618 -14 4 C-9.74472335 -0.44869831 -6.01235581 -0.73889221 0 0 Z " fill="#FAF7F7" transform="translate(632,413)"/>
<path d="M0 0 C4.5037201 2.21091714 6.92481943 4.45436637 9 9 C9.2784375 9.60714844 9.556875 10.21429687 9.84375 10.83984375 C12.09304104 16.7650595 12.28724011 22.5521598 12.3125 28.8125 C12.31789795 29.6176001 12.3232959 30.4227002 12.32885742 31.25219727 C11.95941231 63.55455045 0.09445271 104.50461721 -22.43359375 128.515625 C-27.87881443 133.78679753 -32.40291609 136.52518226 -40 137 C-39.175 136.05125 -38.35 135.1025 -37.5 134.125 C-36.33323682 132.75008189 -35.1665792 131.37507421 -34 130 C-33.06027344 128.92878906 -33.06027344 128.92878906 -32.1015625 127.8359375 C-16.97350287 109.95732157 -8.87976187 85.59637481 -4 63 C-3.83773926 62.25975586 -3.67547852 61.51951172 -3.50830078 60.75683594 C-0.25374047 45.39423647 2.8123269 24.8831344 -5.25 10.625 C-7.67429255 7.05007308 -10.24972948 5.09317424 -14 3 C-9.57837864 -0.84090151 -5.64247 -0.80224692 0 0 Z " fill="#FBF8F8" transform="translate(582,602)"/>
<path d="M0 0 C-0.94875 0.721875 -1.8975 1.44375 -2.875 2.1875 C-13.63509157 11.5129127 -25.03076838 27.42370581 -26.1496582 41.94189453 C-27.13040078 53.89803915 -27.13040078 53.89803915 -22.6328125 64.5234375 C-12.84908673 73.37092157 -2.46874142 72.45761463 10 72 C18.22595288 71.35662938 25.53028548 68.91694112 33.1640625 65.92578125 C36 65 36 65 38 66 C35.50252977 67.27601331 33.00222064 68.54586171 30.5 69.8125 C29.80390625 70.16892578 29.1078125 70.52535156 28.390625 70.89257812 C12.46592177 78.92865522 -6.96802885 83.71683266 -24.4921875 78.171875 C-30.885444 75.18437196 -35.83377503 70.59908037 -38.4375 63.9765625 C-39.48340965 60.30135222 -39.53036393 56.67548825 -39.5 52.875 C-39.49427979 52.0396875 -39.48855957 51.204375 -39.48266602 50.34375 C-39.01074023 33.81840256 -28.90690128 19.78383806 -18 8 C-6.83567663 -2.27855888 -6.83567663 -2.27855888 0 0 Z " fill="#F9F9F3" transform="translate(324,271)"/>
<path d="M0 0 C-2.30632558 1.53755039 -4.49302931 2.79246774 -6.9375 4.0625 C-23.2820154 13.1250687 -39.09826627 27.59092278 -45.40625 45.66796875 C-46.92562039 51.63549587 -46.73638155 56.14534382 -43.9375 61.6875 C-40.97911108 66.51390021 -37.09365544 70.45317228 -32 73 C-18.59880175 74.64138707 -5.91993832 70.21589838 6.54296875 65.72265625 C11.33503989 64.07682768 11.33503989 64.07682768 14 64 C16.92923311 65.54226533 18.829212 67.54441474 21 70 C21.66 70.33 22.32 70.66 23 71 C21.7156759 73.86503068 20.58401213 76.15427705 18 78 C14.64976966 78.7179065 12.72257107 78.4584053 9.8203125 76.6171875 C8.30210533 75.51814864 6.80807495 74.38471206 5.34375 73.21484375 C1.14133811 71.03659359 -2.46232816 72.84156897 -6.8046875 74.12109375 C-8.16276463 74.55583604 -9.51952492 74.99471147 -10.875 75.4375 C-35.14115613 83.31581851 -35.14115613 83.31581851 -45.6015625 78.90234375 C-47.65864676 77.41314182 -49.29697575 75.88076708 -51 74 C-51.57234375 73.42378906 -52.1446875 72.84757812 -52.734375 72.25390625 C-57.82967846 66.80678422 -59.47282603 61.57136544 -59.23828125 54.15234375 C-58.53409517 47.79158095 -53.96267497 43.41420964 -50.06640625 38.6640625 C-46.62090879 34.22204119 -43.28727419 29.30730446 -41.23828125 24.04296875 C-39.32320076 20.88338801 -36.46004058 18.89597257 -33.5625 16.6875 C-32.93504883 16.204021 -32.30759766 15.72054199 -31.66113281 15.22241211 C-11.03588212 -0.48745062 -11.03588212 -0.48745062 0 0 Z " fill="#F9F9F3" transform="translate(636,257)"/>
<path d="M0 0 C-3.15269435 3.25916433 -6.4065762 6.21983783 -9.90991211 9.09570312 C-21.80659565 18.91238692 -35.63875888 32.49097628 -38.40625 48.32421875 C-38.69159478 55.51728518 -36.62047364 60.4887147 -32 66 C-25.5351408 71.47717238 -18.50990117 73.33624751 -10.125 73.125 C-9.43664062 73.11597656 -8.74828125 73.10695313 -8.0390625 73.09765625 C-6.35922162 73.07432513 -4.67956254 73.03846326 -3 73 C-11.14734761 79.33279358 -18.6763168 81.22930857 -29 80 C-37.57658516 77.87672857 -43.93531917 73.33832619 -48.875 66.0625 C-51.33843803 61.75556198 -52.55832909 58.00101887 -51.625 52.984375 C-49.63458543 46.06768438 -45.74051042 40.08683058 -42 34 C-41.54367187 33.18273437 -41.08734375 32.36546875 -40.6171875 31.5234375 C-38.58493744 28.35234199 -36.17863857 25.62628348 -33.625 22.875 C-33.10333252 22.31167969 -32.58166504 21.74835938 -32.04418945 21.16796875 C-26.45429048 15.24974114 -20.35296679 10.07384596 -14 5 C-12.94619141 4.11248047 -12.94619141 4.11248047 -11.87109375 3.20703125 C-7.89282252 0.02975423 -5.03622104 -0.51390011 0 0 Z " fill="#FAFAF4" transform="translate(451,258)"/>
<path d="M0 0 C1.8871875 0.0309375 1.8871875 0.0309375 3.8125 0.0625 C2.91564396 12.17005657 -1.76130861 19.50949302 -10.1875 28.0625 C-10.79335938 28.75214844 -11.39921875 29.44179688 -12.0234375 30.15234375 C-16.06963925 34.61376708 -20.61082315 37.88660797 -25.6875 41.0625 C-26.30447754 41.46090088 -26.92145508 41.85930176 -27.55712891 42.26977539 C-32.29628656 45.10238256 -35.69029544 45.45168262 -41.1875 45.0625 C-42.70766355 40.17626001 -42.25827915 37.45025032 -39.9375 32.875 C-32.58382104 20.46566676 -15.62987042 -0.25622738 0 0 Z " fill="#FBF003" transform="translate(568.1875,268.9375)"/>
<path d="M0 0 C2.84625 -0.061875 5.6925 -0.12375 8.625 -0.1875 C9.51010254 -0.21481201 10.39520508 -0.24212402 11.30712891 -0.27026367 C17.03907724 -0.33025368 21.287621 0.46801676 25.64453125 4.53515625 C30.20841484 10.50331172 30.76096751 14.52772177 30 22 C27.81473658 26.45146251 25.0605479 29.18885145 21 32 C18.23434618 32.92188461 16.61716298 33.11785222 13.76953125 33.09765625 C12.68442261 33.09390991 12.68442261 33.09390991 11.57739258 33.09008789 C10.20877075 33.07643188 10.20877075 33.07643188 8.8125 33.0625 C5.904375 33.041875 2.99625 33.02125 0 33 C0 22.11 0 11.22 0 0 Z " fill="#070700" transform="translate(587,847)"/>
<path d="M0 0 C3.77702297 2.63513231 6.60374735 5.7074947 8.6875 9.875 C9.45075018 16.71922703 8.87862923 21.36035628 4.6875 26.875 C-0.1915146 30.65872561 -4.02395961 32.24017391 -10.25390625 32.16015625 C-15.18132928 31.47760999 -19.24724854 27.59709106 -22.3125 23.875 C-24.78130253 18.81983292 -24.63017439 14.23226012 -23.3125 8.875 C-18.31453989 -0.93581058 -10.08419001 -3.42481925 0 0 Z " fill="#EDE500" transform="translate(758.3125,714.125)"/>
<path d="M0 0 C2.29701855 6.42258477 -1.79042037 13.4245643 -4.51171875 19.21875 C-9.55315653 28.90207106 -15.39426431 38.42685046 -23.0625 46.25 C-26.24904497 49.73228001 -26.72022792 52.36687376 -26.5390625 57.01953125 C-25.83652224 59.60060308 -25.24038286 60.5095166 -23 62 C-19.79861932 62.3636162 -19.79861932 62.3636162 -16.3125 62.1875 C-15.13300781 62.16042969 -13.95351563 62.13335937 -12.73828125 62.10546875 C-11.38283203 62.05326172 -11.38283203 62.05326172 -10 62 C-11 65 -11 65 -13.08203125 66.16796875 C-20.0578796 68.77268466 -26.55340062 70.23369034 -34 69 C-37.25 67.125 -37.25 67.125 -39 64 C-39.90052359 60.43516868 -39.91747992 57.56737779 -39 54 C-37.37202395 51.63898501 -35.51254146 49.76191994 -33.48828125 47.73046875 C-22.86828865 36.0768191 -15.56227919 20.95413735 -11 6 C-18.33793786 6.25216281 -24.35914446 7.12322313 -31.0390625 10.2578125 C-31.68617188 10.50273437 -32.33328125 10.74765625 -33 11 C-33.66 10.67 -34.32 10.34 -35 10 C-23.29618937 2.38363733 -14.07616063 -0.73976903 0 0 Z " fill="#F9F8F3" transform="translate(448,185)"/>
<path d="M0 0 C3.361875 -0.0825 6.72375 -0.165 10.1875 -0.25 C11.23832764 -0.28641602 12.28915527 -0.32283203 13.37182617 -0.36035156 C17.67814611 -0.41155337 20.33022094 -0.37560811 24.1484375 1.765625 C26.66333581 4.80048118 26.54063252 6.32487778 26.30859375 10.09375 C25.94288327 12.35282232 25.27032165 14.09451753 24 16 C24.66 16.495 25.32 16.99 26 17.5 C28.4497131 20.56214138 28.5867075 22.27548421 28.39453125 26.09765625 C27.78611893 29.03128795 26.38853486 30.29390367 24 32 C21.05868109 32.98043964 19.17498335 33.11621202 16.11328125 33.09765625 C15.26805908 33.09515869 14.42283691 33.09266113 13.55200195 33.09008789 C12.48296631 33.08098389 11.41393066 33.07187988 10.3125 33.0625 C5.2078125 33.0315625 5.2078125 33.0315625 0 33 C0 22.11 0 11.22 0 0 Z " fill="#090900" transform="translate(322,847)"/>
<path d="M0 0 C2.88437779 1.29299694 4.87219421 2.65941363 7 5 C5.42599588 9.02348983 2.77712069 11.19086463 -0.4375 14 C-14.63518351 25.89330814 -14.63518351 25.89330814 -22.5 41.5 C-21.68538093 47.20233349 -18.99968915 50.43531395 -14.5 53.8125 C-9.73203169 57.16091411 -4.72665334 57.56606129 1 57 C4.71767345 56.15752328 8.35854298 55.12456761 12 54 C9.26634024 59.46731952 -1.47153965 62.13431899 -7 64 C-12.84495612 65.20445225 -17.46584475 65.24472754 -22.87890625 62.5859375 C-27.93243017 59.24634527 -32.25565774 55.48868452 -35 50 C-35.55831128 46.02203213 -35.80605236 43.4433961 -33.82421875 39.89453125 C-31.98568958 37.48557537 -30.03648157 35.24471799 -28 33 C-27.14277344 32.03578125 -26.28554688 31.0715625 -25.40234375 30.078125 C-13.38935465 16.69051525 -13.38935465 16.69051525 -8 12 C-7.34 12 -6.68 12 -6 12 C-6.268125 11.278125 -6.53625 10.55625 -6.8125 9.8125 C-7 7 -7 7 -4.6875 4.1875 C-2 2 -2 2 0 2 C0 1.34 0 0.68 0 0 Z " fill="#FAFAF5" transform="translate(718,275)"/>
<path d="M0 0 C1.98 0 3.96 0 6 0 C8.61244595 5.61675879 10.38720259 11.36420105 12.1328125 17.3046875 C12.73850865 19.89069341 12.73850865 19.89069341 14 21 C14.33773438 19.90300781 14.67546875 18.80601562 15.0234375 17.67578125 C15.47385102 16.22132093 15.92437784 14.76689569 16.375 13.3125 C16.70757812 12.2306543 16.70757812 12.2306543 17.046875 11.12695312 C18.22052719 7.3471027 19.45903232 3.65079726 21 0 C22.98 0 24.96 0 27 0 C30.00916541 7.23480194 32.57418121 14.54927087 35 22 C38.465 11.11 38.465 11.11 42 0 C44.31 0 46.62 0 49 0 C47.06362713 8.0172631 44.3611071 15.61985453 41.40234375 23.30078125 C40.18467743 26.51284254 39.05869051 29.73274939 38 33 C36.02 33 34.04 33 32 33 C29.76975295 27.20135768 27.77630428 21.35374852 25.8671875 15.44140625 C25.22644161 13.08322698 25.22644161 13.08322698 24 12 C23.01602415 14.5607445 22.03770033 17.12341492 21.0625 19.6875 C20.78470703 20.40873047 20.50691406 21.12996094 20.22070312 21.87304688 C18.82233426 25.56271893 17.61063996 29.08108282 17 33 C14.69 33 12.38 33 10 33 C9.67386719 31.92621094 9.34773438 30.85242188 9.01171875 29.74609375 C8.57051469 28.30983371 8.12909701 26.87363927 7.6875 25.4375 C7.47416016 24.73302734 7.26082031 24.02855469 7.04101562 23.30273438 C5.98576005 19.88496632 4.86413356 16.58103124 3.40625 13.3125 C2.14351211 10.33805075 1.37630078 7.72845824 0.8125 4.5625 C0.65394531 3.69753906 0.49539063 2.83257813 0.33203125 1.94140625 C0.22246094 1.30074219 0.11289062 0.66007813 0 0 Z " fill="#0D0D00" transform="translate(430,847)"/>
<path d="M0 0 C7 0 7 0 8.62084961 1.28515625 C8.96124268 1.87167969 9.30163574 2.45820312 9.65234375 3.0625 C10.03583984 3.69414063 10.41933594 4.32578125 10.81445312 4.9765625 C11.18505859 5.64429688 11.55566406 6.31203125 11.9375 7 C12.33517578 7.66773438 12.73285156 8.33546875 13.14257812 9.0234375 C14.11807693 10.66885717 15.06220268 12.33280476 16 14 C19.2068824 10.13388696 21.70899741 6.1712158 24.14453125 1.79296875 C26 0 26 0 33 0 C33 10.89 33 21.78 33 33 C31.02 33 29.04 33 27 33 C27 25.74 27 18.48 27 11 C26.34 11 25.68 11 25 11 C24.731875 11.72574219 24.46375 12.45148437 24.1875 13.19921875 C23.01329619 15.96864024 21.6605676 18.30919434 20 20.8125 C19.484375 21.60269531 18.96875 22.39289062 18.4375 23.20703125 C17.963125 23.79871094 17.48875 24.39039063 17 25 C16.34 25 15.68 25 15 25 C13.53057579 22.85192606 12.19193553 20.73756856 10.875 18.5 C9.59625 16.355 8.3175 14.21 7 12 C6.67 18.93 6.34 25.86 6 33 C4.02 33 2.04 33 0 33 C0 22.11 0 11.22 0 0 Z " fill="#0B0A00" transform="translate(725,847)"/>
<path d="M0 0 C1.98 0 3.96 0 6 0 C8.17103314 2.17103314 9.80877678 4.09327772 11.5625 6.5625 C12.01818359 7.17158203 12.47386719 7.78066406 12.94335938 8.40820312 C14.31863283 10.2568993 15.66277764 12.12357152 17 14 C19.475 17.465 19.475 17.465 22 21 C22.33 14.07 22.66 7.14 23 0 C24.98 0 26.96 0 29 0 C29 10.89 29 21.78 29 33 C27.02 33 25.04 33 23 33 C21.00300623 31.00300623 19.56919906 29.2930554 18 27 C17.60039063 26.44699219 17.20078125 25.89398437 16.7890625 25.32421875 C15.51414243 23.55800783 14.25738368 21.77873789 13 20 C11.02 17.36 9.04 14.72 7 12 C6.67 18.93 6.34 25.86 6 33 C4.02 33 2.04 33 0 33 C0 22.11 0 11.22 0 0 Z " fill="#0C0B00" transform="translate(538,847)"/>
<path d="M0 0 C2.31 0 4.62 0 7 0 C8.12447016 2.45437237 9.24267338 4.91139908 10.35546875 7.37109375 C11.24029593 9.32359839 12.12662065 11.27544377 13.02197266 13.22314453 C14.12576433 15.62481742 15.21958737 18.03085979 16.3125 20.4375 C16.67408203 21.21851074 17.03566406 21.99952148 17.40820312 22.80419922 C17.74400391 23.54814941 18.07980469 24.29209961 18.42578125 25.05859375 C18.88078003 26.05330688 18.88078003 26.05330688 19.3449707 27.06811523 C20 29 20 29 20 33 C18.02 33 16.04 33 14 33 C12.515 29.535 12.515 29.535 11 26 C6.05 26 1.1 26 -4 26 C-4.99 28.31 -5.98 30.62 -7 33 C-8.98 33 -10.96 33 -13 33 C-12.44076838 27.128068 -10.08797691 22.33529708 -7.625 17.0625 C-6.8250087 15.32445438 -6.02552003 13.58617732 -5.2265625 11.84765625 C-4.84661133 11.02539551 -4.46666016 10.20313477 -4.07519531 9.35595703 C-2.66195263 6.25927404 -1.32278043 3.13626973 0 0 Z " fill="#0C0C00" transform="translate(689,847)"/>
<path d="M0 0 C1.98 0 3.96 0 6 0 C6 4.62 6 9.24 6 14 C11.28 14 16.56 14 22 14 C22 9.38 22 4.76 22 0 C23.98 0 25.96 0 28 0 C28 10.89 28 21.78 28 33 C26.02 33 24.04 33 22 33 C22 28.38 22 23.76 22 19 C16.72 19 11.44 19 6 19 C6 23.62 6 28.24 6 33 C4.02 33 2.04 33 0 33 C0 22.11 0 11.22 0 0 Z " fill="#080800" transform="translate(633,847)"/>
<path d="M0 0 C-0.71614583 1.59505208 -1.43229167 3.19010417 -2.1484375 4.78515625 C-3.12598852 7.15265454 -3.12598852 7.15265454 -3.71484375 10.39453125 C-5.27575838 14.77363216 -7.63779919 16.85114789 -11.1875 19.625 C-12.45908135 20.66445019 -13.72988831 21.70484829 -15 22.74609375 C-15.65871094 23.27831543 -16.31742188 23.81053711 -16.99609375 24.35888672 C-19.64182159 26.52562436 -22.21489328 28.76931476 -24.78686523 31.02270508 C-27.27521874 33.20229179 -29.78284362 35.35915572 -32.28955078 37.51757812 C-33.84864916 38.86882639 -35.39201632 40.23817164 -36.93359375 41.609375 C-45.14757652 48.71464892 -54.39109818 53.53281353 -65 56 C-65 55.34 -65 54.68 -65 54 C-63.80375 53.5875 -62.6075 53.175 -61.375 52.75 C-54.56223502 49.71619059 -49.39393357 44.62017674 -43.89990234 39.69384766 C-40.69751405 36.8387757 -37.43790383 34.05010838 -34.1875 31.25 C-29.27117695 27.00141917 -24.41005876 22.70262571 -19.63671875 18.29296875 C-18 17 -18 17 -16 17 C-16.1546875 15.7625 -16.1546875 15.7625 -16.3125 14.5 C-15.83013696 9.09753398 -12.9569063 5.40264607 -9.59375 1.2734375 C-6.70779747 -1.03249516 -3.55779602 -0.17497357 0 0 Z " fill="#F7F7F0" transform="translate(712,247)"/>
<path d="M0 0 C0.33 0 0.66 0 1 0 C1.33984375 2.15625 1.33984375 2.15625 1 5 C-0.76990156 7.08435107 -2.38977204 8.73562866 -4.4375 10.5 C-4.98011475 10.98122314 -5.52272949 11.46244629 -6.08178711 11.95825195 C-16.53443516 21 -16.53443516 21 -23 21 C-23 21.66 -23 22.32 -23 23 C-34.36959095 26.76864959 -44.92153951 29.9600051 -57 30 C-56.74109357 28.60190528 -56.46722539 27.20657858 -56.1875 25.8125 C-56.03667969 25.03519531 -55.88585937 24.25789063 -55.73046875 23.45703125 C-54.85349298 20.50720365 -53.86834073 18.45867658 -52 16 C-49.47900391 15.49584961 -49.47900391 15.49584961 -46.4765625 15.65234375 C-45.37892578 15.689646 -44.28128906 15.72694824 -43.15039062 15.76538086 C-41.40532227 15.85057983 -41.40532227 15.85057983 -39.625 15.9375 C-25.46892793 16.27054998 -13.89144479 15.11348445 -3 5 C-1.96583787 3.35431277 -0.95743884 1.69147529 0 0 Z " fill="#F8EF15" transform="translate(670,280)"/>
<path d="M0 0 C-1.56859682 5.100406 -4.70651396 8.65898407 -8.0625 12.6875 C-8.64668701 13.39648438 -9.23087402 14.10546875 -9.83276367 14.8359375 C-14.40862729 20.35942053 -19.08051092 25.7783542 -24 31 C-24.96099609 32.02287109 -24.96099609 32.02287109 -25.94140625 33.06640625 C-43.89376216 51.59904033 -43.89376216 51.59904033 -53 53 C-52.50080999 48.97912701 -51.72513092 47.26992323 -48.5625 44.75 C-47.840625 44.15316406 -47.11875 43.55632812 -46.375 42.94140625 C-45.59125 42.30074219 -44.8075 41.66007812 -44 41 C-30.77063976 29.61511787 -20.33520319 16.47545558 -10.15625 2.390625 C-7.41965511 -0.90068507 -3.96672526 -0.07345788 0 0 Z " fill="#F7F7F2" transform="translate(493,259)"/>
<path d="M0 0 C-0.89685604 12.10755657 -5.57380861 19.44699302 -14 28 C-14.60585938 28.68964844 -15.21171875 29.37929688 -15.8359375 30.08984375 C-19.91753829 34.59029877 -24.48645827 37.82913159 -29.625 41 C-30.25873535 41.39840088 -30.8924707 41.79680176 -31.54541016 42.20727539 C-35.52792061 44.56275289 -38.38401304 45.45449718 -43 45 C-40.78176374 43.19768304 -38.56995953 41.40440587 -36.23828125 39.75 C-23.5242536 30.67223584 -16.41676526 20.86618552 -12 6 C-13.65 6 -15.3 6 -17 6 C-11.79516879 0.21685421 -7.44167705 -0.25226024 0 0 Z " fill="#F8F8F4" transform="translate(572,269)"/>
<path d="M0 0 C11.42857143 0 11.42857143 0 16 4 C18.47241989 7.70862983 18.66668695 10.69905615 18 15 C15.71063381 19.41520623 14.50950852 20.74524574 10 23 C6.7 23 3.4 23 0 23 C0 15.41 0 7.82 0 0 Z " fill="#F4EA00" transform="translate(593,852)"/>
<path d="M0 0 C3.2265625 -0.37109375 3.2265625 -0.37109375 7 0 C9.3984375 2.58984375 9.3984375 2.58984375 11.375 5.9375 C12.04273438 7.03964844 12.71046875 8.14179687 13.3984375 9.27734375 C13.92695313 10.17582031 14.45546875 11.07429687 15 12 C15.33 12.33 15.66 12.66 16 13 C16.56589844 12.14535156 17.13179688 11.29070313 17.71484375 10.41015625 C18.45566841 9.2942305 19.19655714 8.17834728 19.9375 7.0625 C20.31068359 6.49853516 20.68386719 5.93457031 21.06835938 5.35351562 C23.88671875 1.11328125 23.88671875 1.11328125 25 0 C26.99958364 -0.04080783 29.00045254 -0.04254356 31 0 C29.74461882 3.69068348 27.97024276 6.52339601 25.67358398 9.65771484 C19.86793682 17.72347075 18.65302937 24.09051877 19 34 C16.69 34 14.38 34 12 34 C12.05542969 33.11441406 12.11085938 32.22882812 12.16796875 31.31640625 C12.22844204 19.69343985 7.86277289 12.71252721 0.99389648 3.54956055 C0 2 0 2 0 0 Z " fill="#141300" transform="translate(362,847)"/>
<path d="M0 0 C3.22265625 -0.3671875 3.22265625 -0.3671875 7 0 C9.43359375 2.5546875 9.43359375 2.5546875 11.4375 5.875 C12.11683594 6.96554687 12.79617188 8.05609375 13.49609375 9.1796875 C15 12 15 12 15 14 C15.66 14 16.32 14 17 14 C17.27457031 13.27425781 17.54914063 12.54851563 17.83203125 11.80078125 C19.64369868 7.45641486 21.74563034 3.43802483 25 0 C28.875 -0.5625 28.875 -0.5625 32 0 C31.32904297 1.051875 31.32904297 1.051875 30.64453125 2.125 C29.38404693 4.10307347 28.13189932 6.08647613 26.88671875 8.07421875 C25 11 25 11 23.45703125 13.01953125 C18.95064465 19.08531262 19.11368338 25.6415848 19 33 C17.02 33 15.04 33 13 33 C13.05542969 32.25878906 13.11085938 31.51757812 13.16796875 30.75390625 C13.23438291 19.90183268 8.34051537 13.21055345 2.10742188 4.69482422 C1 3 1 3 0 0 Z " fill="#0A0A00" transform="translate(491,847)"/>
<path d="M0 0 C3.77702297 2.63513231 6.60374735 5.7074947 8.6875 9.875 C9.45075018 16.71922703 8.87862923 21.36035628 4.6875 26.875 C-0.1915146 30.65872561 -4.02395961 32.24017391 -10.25390625 32.16015625 C-15.18132928 31.47760999 -19.24724854 27.59709106 -22.3125 23.875 C-24.78130253 18.81983292 -24.63017439 14.23226012 -23.3125 8.875 C-18.31453989 -0.93581058 -10.08419001 -3.42481925 0 0 Z M-19.3125 6.875 C-22.15519652 11.13904478 -21.93609076 14.87068417 -21.3125 19.875 C-19.53330689 23.63867773 -18.02018445 25.38126666 -14.625 27.75 C-10.35663737 29.19963259 -6.76055563 29.84028985 -2.3125 28.875 C1.89813168 26.4108235 4.81093666 23.39461029 6.6875 18.875 C7.37416102 12.80949433 6.12566222 9.70701177 2.6875 4.875 C-1.17859124 1.24321732 -5.56864996 1.31914333 -10.6484375 1.44921875 C-14.85504886 2.1215364 -16.4759778 3.74755245 -19.3125 6.875 Z " fill="#211F00" transform="translate(758.3125,714.125)"/>
<path d="M0 0 C1.16789063 0.02320313 1.16789063 0.02320313 2.359375 0.046875 C4.25 0.25 4.25 0.25 5.25 1.25 C5.3125 4.5 5.3125 4.5 4.25 8.25 C-2.9933487 14.88973631 -11.37871715 15.55014785 -20.75 15.25 C-19.27157091 11.71600105 -17.30937221 9.69254483 -14.4375 7.1875 C-13.67824219 6.51589844 -12.91898438 5.84429687 -12.13671875 5.15234375 C-8.14558435 1.97119408 -5.22012013 -0.17517182 0 0 Z " fill="#F6F5F1" transform="translate(651.75,267.75)"/>
<path d="M0 0 C0.66 0 1.32 0 2 0 C2.7425 0.804375 3.485 1.60875 4.25 2.4375 C7.46996089 5.4379181 8.67084663 5.75495358 13 6 C14.08087891 6.07541016 14.08087891 6.07541016 15.18359375 6.15234375 C22.14062226 6.43062489 28.34551248 4.920883 35 3 C31.8808623 6.57671292 28.9948776 8.0631489 24.5625 9.6875 C23.45003906 10.10386719 22.33757813 10.52023437 21.19140625 10.94921875 C15.81726829 12.71867176 11.10637242 13.15935267 5.4375 13.1875 C4.13683594 13.20167969 2.83617187 13.21585937 1.49609375 13.23046875 C-1.68701826 13.02063232 -3.36406237 12.69692677 -6 11 C-5.39096941 7.90694578 -4.40131197 5.80360238 -2.5625 3.25 C-2.13066406 2.63640625 -1.69882812 2.0228125 -1.25390625 1.390625 C-0.63322266 0.70226562 -0.63322266 0.70226562 0 0 Z " fill="#F4F3ED" transform="translate(511,324)"/>
<path d="M0 0 C-6.50181518 14.51178337 -22.17617893 27.68906942 -34 38 C-34.33 37.34 -34.66 36.68 -35 36 C-29.28827643 26.67645123 -12.1887576 0 0 0 Z " fill="#F9EF0D" transform="translate(477,269)"/>
<path d="M0 0 C10.625 -0.25 10.625 -0.25 14 2 C14.1875 4.875 14.1875 4.875 14 8 C14 9.32 14 10.64 14 12 C14 14 14 16 14 18 C13.01 18 12.02 18 11 18 C10.34 16.02 9.68 14.04 9 12 C6.03 11.505 6.03 11.505 3 11 C3 13.31 3 15.62 3 18 C2.01 18 1.02 18 0 18 C0 12.06 0 6.12 0 0 Z " fill="#292700" transform="translate(744,720)"/>
<path d="M0 0 C-2.18144224 1.15879664 -4.36903017 2.30187378 -6.5625 3.4375 C-7.17158203 3.76298828 -7.78066406 4.08847656 -8.40820312 4.42382812 C-15.39533597 8.00981694 -22.22919403 8.14836802 -29.9375 8.0625 C-30.71673828 8.05798828 -31.49597656 8.05347656 -32.29882812 8.04882812 C-34.19925268 8.03716908 -36.09963706 8.01923877 -38 8 C-37.125 3.25 -37.125 3.25 -36 1 C-34.86570557 1.01571045 -34.86570557 1.01571045 -33.70849609 1.03173828 C-30.26403155 1.07345416 -26.8196203 1.09937583 -23.375 1.125 C-22.18519531 1.14175781 -20.99539063 1.15851563 -19.76953125 1.17578125 C-18.03896484 1.18544922 -18.03896484 1.18544922 -16.2734375 1.1953125 C-15.21560059 1.20578613 -14.15776367 1.21625977 -13.06787109 1.22705078 C-8.29186022 0.87358189 -4.6664879 -1.79480304 0 0 Z " fill="#F7F7F2" transform="translate(654,295)"/>
<path d="M0 0 C2.10388569 -0.05402274 4.20816714 -0.09280256 6.3125 -0.125 C8.07013672 -0.15980469 8.07013672 -0.15980469 9.86328125 -0.1953125 C13 0 13 0 16 2 C16.375 4.5 16.375 4.5 16 7 C12.36804504 9.42130331 10.61650652 9.21022785 6.3125 9.125 C5.13300781 9.10695313 3.95351563 9.08890625 2.73828125 9.0703125 C1.83464844 9.04710937 0.93101562 9.02390625 0 9 C0 6.03 0 3.06 0 0 Z " fill="#F5EA00" transform="translate(328,866)"/>
<path d="M0 0 C-3.28627464 3.46743724 -6.49745584 6.16212461 -10.5625 8.6640625 C-11.60664062 9.31117188 -12.65078125 9.95828125 -13.7265625 10.625 C-14.80679688 11.285 -15.88703125 11.945 -17 12.625 C-18.08023438 13.29273438 -19.16046875 13.96046875 -20.2734375 14.6484375 C-23.17718527 16.44087439 -26.08509227 18.22577732 -29 20 C-29.89847656 20.58571777 -30.79695312 21.17143555 -31.72265625 21.77490234 C-32.47417969 22.17918457 -33.22570312 22.5834668 -34 23 C-34.66 22.67 -35.32 22.34 -36 22 C-34.49249611 20.38330066 -32.96829012 18.7821681 -31.4375 17.1875 C-30.59058594 16.29417969 -29.74367188 15.40085937 -28.87109375 14.48046875 C-25.71032812 11.74973926 -22.85212717 10.56923057 -19 9 C-15.93037142 7.16157535 -13.0052027 5.10315156 -10.07421875 3.05273438 C-6.58272959 0.70580623 -4.24323331 -0.55242094 0 0 Z " fill="#F3F2E6" transform="translate(757,288)"/>
<path d="M0 0 C1.95803507 -0.05389087 3.91648909 -0.09274217 5.875 -0.125 C7.51082031 -0.15980469 7.51082031 -0.15980469 9.1796875 -0.1953125 C12 0 12 0 14 2 C14.25 4.5 14.25 4.5 14 7 C12 9 12 9 9.1796875 9.1953125 C8.08914063 9.17210937 6.99859375 9.14890625 5.875 9.125 C4.77929688 9.10695313 3.68359375 9.08890625 2.5546875 9.0703125 C1.71164062 9.04710937 0.86859375 9.02390625 0 9 C0 6.03 0 3.06 0 0 Z " fill="#E9E100" transform="translate(328,852)"/>
<path d="M0 0 C7.59 0 15.18 0 23 0 C23 0.66 23 1.32 23 2 C15.06159801 4.90830856 7.41442956 5.64838839 -1 6 C-0.67 4.02 -0.34 2.04 0 0 Z " fill="#E8E000" transform="translate(614,304)"/>
<path d="M0 0 C-0.58678331 3.52069985 -1.35649921 5.71299843 -3 9 C-6.63 9 -10.26 9 -14 9 C-10.56255548 2.12511096 -7.91838487 -0.77631224 0 0 Z " fill="#EAE107" transform="translate(645,274)"/>
<path d="M0 0 C-3.69059292 2.14016342 -7.63116296 3.00321588 -11.75 3.9375 C-12.49427246 4.10862305 -13.23854492 4.27974609 -14.00537109 4.45605469 C-36.71229601 9.59995626 -36.71229601 9.59995626 -44 9 C-45.70166016 7.48339844 -45.70166016 7.48339844 -47 6 C-45.741875 5.89042969 -44.48375 5.78085937 -43.1875 5.66796875 C-31.35510677 4.58934121 -19.88626474 2.90419959 -8.265625 0.4140625 C-5.4838997 -0.09432178 -2.82111892 -0.06560742 0 0 Z " fill="#DFB9BF" transform="translate(585,791)"/>
<path d="M0 0 C2.97 0 5.94 0 9 0 C9 0.33 9 0.66 9 1 C6.69 1 4.38 1 2 1 C2 3.31 2 5.62 2 8 C3.60875 7.9071875 3.60875 7.9071875 5.25 7.8125 C9 8 9 8 11.4375 9.125 C13.6260738 11.75128857 13.29461899 13.68553637 13 17 C12.01 17 11.02 17 10 17 C9.34 15.02 8.68 13.04 8 11 C5.03 10.505 5.03 10.505 2 10 C2 12.31 2 14.62 2 17 C1.34 17 0.68 17 0 17 C0 11.39 0 5.78 0 0 Z " fill="#010100" transform="translate(745,721)"/>
<path d="M0 0 C-1.56095069 3.73806611 -3.87429146 6.13242541 -6.71875 8.984375 C-8.11673828 10.38623047 -8.11673828 10.38623047 -9.54296875 11.81640625 C-10.02813965 12.2973877 -10.51331055 12.77836914 -11.01318359 13.27392578 C-12.50206339 14.75204848 -13.97991651 16.24059911 -15.45703125 17.73046875 C-16.38902344 18.65988281 -17.32101562 19.58929688 -18.28125 20.546875 C-19.13783203 21.40120117 -19.99441406 22.25552734 -20.87695312 23.13574219 C-23 25 -23 25 -25 25 C-23.43904931 21.26193389 -21.12570854 18.86757459 -18.28125 16.015625 C-17.34925781 15.08105469 -16.41726563 14.14648438 -15.45703125 13.18359375 C-14.97186035 12.7026123 -14.48668945 12.22163086 -13.98681641 11.72607422 C-12.49793661 10.24795152 -11.02008349 8.75940089 -9.54296875 7.26953125 C-8.61097656 6.34011719 -7.67898438 5.41070312 -6.71875 4.453125 C-5.86216797 3.59879883 -5.00558594 2.74447266 -4.12304688 1.86425781 C-2 0 -2 0 0 0 Z " fill="#424242" transform="translate(368,98)"/>
<path d="M0 0 C2.74792483 3.40219265 6 7.48464588 6 12 C2.37 12 -1.26 12 -5 12 C-3.68938409 7.76570244 -2.05643741 3.92592596 0 0 Z " fill="#E9E100" transform="translate(692,855)"/>
<path d="M0 0 C0.33 0 0.66 0 1 0 C1 5.94 1 11.88 1 18 C-0.32 18 -1.64 18 -3 18 C-4.21139051 12.30646459 -3.92809892 7.53623726 -2 2 C-1.34 1.34 -0.68 0.68 0 0 Z " fill="#FAF200" transform="translate(742,720)"/>
<path d="M0 0 C2.65696068 0.15182632 4.44234524 0.47324024 6.41015625 2.33203125 C9.91314509 6.52949018 11.13140852 8.75013518 11.0625 14.125 C11.05347656 15.03507813 11.04445313 15.94515625 11.03515625 16.8828125 C11.02355469 17.58148437 11.01195312 18.28015625 11 19 C10.01 19.33 9.02 19.66 8 20 C8.03480469 19.40832031 8.06960938 18.81664062 8.10546875 18.20703125 C8.27811425 13.16742678 8.06170609 10.20984588 5 6 C5 5.34 5 4.68 5 4 C2.525 3.01 2.525 3.01 0 2 C0 1.34 0 0.68 0 0 Z " fill="#1B1A00" transform="translate(756,715)"/>
<path d="M0 0 C0.99 0.66 1.98 1.32 3 2 C0.48677688 3.25661156 -1.50917677 3.21567716 -4.3125 3.375 C-8.66563123 3.72780279 -11.43923507 4.32942631 -15 7 C-15.99 7.33 -16.98 7.66 -18 8 C-15.12727502 -0.04362996 -7.51720895 -1.11270219 0 0 Z " fill="#2C2A00" transform="translate(755,713)"/>
<path d="M0 0 C0.33 0.99 0.66 1.98 1 3 C-4.61 6.96 -10.22 10.92 -16 15 C-16.33 13.68 -16.66 12.36 -17 11 C-11.39 7.37 -5.78 3.74 0 0 Z " fill="#28270F" transform="translate(446,568)"/>
<path d="M0 0 C-2.30228918 2.30228918 -3.86495147 2.74491956 -6.9375 3.75 C-12.22159254 5.57857413 -16.82063332 8.0249213 -21.58984375 10.92578125 C-24 12 -24 12 -26.31640625 11.66796875 C-26.87199219 11.44753906 -27.42757813 11.22710937 -28 11 C-23.84348925 7.69676984 -19.42812258 5.85244639 -14.5625 3.8125 C-13.2930957 3.26045898 -13.2930957 3.26045898 -11.99804688 2.69726562 C-11.17498047 2.34986328 -10.35191406 2.00246094 -9.50390625 1.64453125 C-8.75955322 1.32846924 -8.0152002 1.01240723 -7.24829102 0.68676758 C-4.73199659 -0.08186487 -2.61642008 -0.12121854 0 0 Z " fill="#E5E4C2" transform="translate(417,166)"/>
<path d="M0 0 C0.66 0.33 1.32 0.66 2 1 C0.87722656 1.65226562 -0.24554687 2.30453125 -1.40234375 2.9765625 C-12.89766644 9.67468025 -12.89766644 9.67468025 -24 17 C-24.66 16.34 -25.32 15.68 -26 15 C-5.66168224 2.0046729 -5.66168224 2.0046729 0 0 Z " fill="#33321A" transform="translate(526,386)"/>
<path d="M0 0 C3.63 0.33 7.26 0.66 11 1 C11 1.33 11 1.66 11 2 C8.03 2 5.06 2 2 2 C2 3.65 2 5.3 2 7 C5.63 7 9.26 7 13 7 C13 7.66 13 8.32 13 9 C8.71 9 4.42 9 0 9 C0 6.03 0 3.06 0 0 Z " fill="#DFDB00" transform="translate(328,866)"/>
<path d="M0 0 C2.31 0.33 4.62 0.66 7 1 C7.625 2.875 7.625 2.875 8 5 C6 7 6 7 2.875 7.125 C1.451875 7.063125 1.451875 7.063125 0 7 C0 4.69 0 2.38 0 0 Z " fill="#B3AD00" transform="translate(747,722)"/>
<path d="M0 0 C0.99 0.33 1.98 0.66 3 1 C1.0894422 2.96463019 -0.82795314 4.92166401 -2.75 6.875 C-3.55824219 7.70837891 -3.55824219 7.70837891 -4.3828125 8.55859375 C-9.37208686 13.60871292 -9.37208686 13.60871292 -13 15 C-11.38989473 10.92623969 -8.46177729 8.23492931 -5.375 5.25 C-4.859375 4.74339844 -4.34375 4.23679687 -3.8125 3.71484375 C-2.54616661 2.47196098 -1.2736856 1.23534724 0 0 Z " fill="#F4EE00" transform="translate(467,275)"/>
<path d="M0 0 C-2.92730318 1.39751672 -5.8680799 2.76396371 -8.8125 4.125 C-9.64587891 4.52332031 -10.47925781 4.92164063 -11.33789062 5.33203125 C-12.14033203 5.69941406 -12.94277344 6.06679688 -13.76953125 6.4453125 C-14.50792236 6.79094238 -15.24631348 7.13657227 -16.00708008 7.49267578 C-16.66474365 7.66009277 -17.32240723 7.82750977 -18 8 C-18.99 7.34 -19.98 6.68 -21 6 C-18.25538312 4.79848104 -15.50547873 3.61361897 -12.75 2.4375 C-11.97269531 2.09525391 -11.19539062 1.75300781 -10.39453125 1.40039062 C-9.64042969 1.08134766 -8.88632812 0.76230469 -8.109375 0.43359375 C-7.07248535 -0.01415405 -7.07248535 -0.01415405 -6.01464844 -0.47094727 C-3.64929576 -1.09209599 -2.28986553 -0.77451334 0 0 Z " fill="#FBE7D0" transform="translate(558,375)"/>
<path d="M0 0 C0.66 0.33 1.32 0.66 2 1 C0.95435763 3.8894378 0.17182703 4.89539794 -2.49609375 6.51953125 C-3.95208984 7.15955078 -3.95208984 7.15955078 -5.4375 7.8125 C-6.40558594 8.25207031 -7.37367188 8.69164062 -8.37109375 9.14453125 C-11 10 -11 10 -14 9 C-13.07316406 8.43410156 -12.14632813 7.86820312 -11.19140625 7.28515625 C-9.98172588 6.54434424 -8.77209291 5.80345482 -7.5625 5.0625 C-6.95083984 4.68931641 -6.33917969 4.31613281 -5.70898438 3.93164062 C-2.68972694 2.18538519 -2.68972694 2.18538519 0 0 Z " fill="#F1F1DE" transform="translate(349,312)"/>
<path d="M0 0 C2.55763428 3.12934077 4.17140993 6.28567043 5.75 10 C6.19859375 11.03125 6.6471875 12.0625 7.109375 13.125 C8.00889467 16.02871263 8.0943977 17.22396681 7 20 C6.67386719 19.18015625 6.34773437 18.3603125 6.01171875 17.515625 C5.35623047 15.89914063 5.35623047 15.89914063 4.6875 14.25 C4.25824219 13.18265625 3.82898438 12.1153125 3.38671875 11.015625 C2.13607979 8.01667785 2.13607979 8.01667785 0.3125 5.75 C-1 4 -1 4 -0.6875 1.75 C-0.460625 1.1725 -0.23375 0.595 0 0 Z " fill="#D9D9BD" transform="translate(762,236)"/>
<path d="M0 0 C0.33 0 0.66 0 1 0 C1.33 6.93 1.66 13.86 2 21 C1.34 21 0.68 21 0 21 C-0.82514784 18.16615892 -1.07936233 15.83064749 -0.87890625 12.890625 C-0.83056641 12.13652344 -0.78222656 11.38242187 -0.73242188 10.60546875 C-0.67634766 9.82816406 -0.62027344 9.05085938 -0.5625 8.25 C-0.51029297 7.45722656 -0.45808594 6.66445313 -0.40429688 5.84765625 C-0.27510676 3.89806003 -0.13830035 1.94897114 0 0 Z " fill="#C9C300" transform="translate(288,370)"/>
<path d="M0 0 C4.44046541 6.66069811 5.45394757 15.13157553 5 23 C4.67 23 4.34 23 4 23 C3.70996094 21.60587891 3.70996094 21.60587891 3.4140625 20.18359375 C1.82405407 12.40615639 1.82405407 12.40615639 -0.25 4.75 C-1 2 -1 2 0 0 Z " fill="#4D4A14" transform="translate(767,240)"/>
<path d="M0 0 C3.63 0 7.26 0 11 0 C11 0.99 11 1.98 11 3 C7.04 3 3.08 3 -1 3 C-0.67 2.01 -0.34 1.02 0 0 Z " fill="#F9F000" transform="translate(745,716)"/>
<path d="M0 0 C0.33 0.66 0.66 1.32 1 2 C11.89 1.505 11.89 1.505 23 1 C22.67 1.66 22.34 2.32 22 3 C16.91085858 4.08265811 12.227296 3.97385543 7.0625 3.5625 C6.03672852 3.48418945 6.03672852 3.48418945 4.99023438 3.40429688 C3.32628831 3.27630102 1.6630527 3.13912281 0 3 C0 2.01 0 1.02 0 0 Z " fill="#F6ED36" transform="translate(615,301)"/>
<path d="M0 0 C-1.78809697 1.17213045 -3.58059125 2.33755526 -5.375 3.5 C-6.37273438 4.1496875 -7.37046875 4.799375 -8.3984375 5.46875 C-11 7 -11 7 -13 7 C-12.7734375 5.14453125 -12.7734375 5.14453125 -12 3 C-10.0390625 1.69921875 -10.0390625 1.69921875 -7.625 0.6875 C-6.83351563 0.34074219 -6.04203125 -0.00601562 -5.2265625 -0.36328125 C-3 -1 -3 -1 0 0 Z " fill="#F3E7ED" transform="translate(540,383)"/>
<path d="M0 0 C0.33 0 0.66 0 1 0 C1.25 2.26171875 1.25 2.26171875 1 5 C-0.75 7.01953125 -0.75 7.01953125 -3 8.8125 C-3.7425 9.41707031 -4.485 10.02164062 -5.25 10.64453125 C-5.8275 11.09183594 -6.405 11.53914063 -7 12 C-7.99 11.34 -8.98 10.68 -10 10 C-8.906875 9.278125 -7.81375 8.55625 -6.6875 7.8125 C-3.52974617 5.57974476 -1.78720263 3.47511623 0 0 Z " fill="#E8E109" transform="translate(670,280)"/>
<path d="M0 0 C0.33 0 0.66 0 1 0 C1 5.94 1 11.88 1 18 C1.99 18.33 2.98 18.66 4 19 C3.34 19 2.68 19 2 19 C1.67 19.99 1.34 20.98 1 22 C0.01 21.01 -0.98 20.02 -2 19 C-1.67 18.67 -1.34 18.34 -1 18 C-0.84417697 16.65984779 -0.74955858 15.31241097 -0.68359375 13.96484375 C-0.62075195 12.75151367 -0.62075195 12.75151367 -0.55664062 11.51367188 C-0.51732422 10.66353516 -0.47800781 9.81339844 -0.4375 8.9375 C-0.39431641 8.08349609 -0.35113281 7.22949219 -0.30664062 6.34960938 C-0.20023298 4.23327963 -0.09958269 2.11666187 0 0 Z " fill="#DDD500" transform="translate(743,720)"/>
<path d="M0 0 C-2.46629166 1.64419444 -4.92734642 3.15858746 -7.5 4.625 C-8.2734375 5.07101562 -9.046875 5.51703125 -9.84375 5.9765625 C-12 7 -12 7 -15 7 C-10.34876969 1.95009281 -6.95985625 -0.39770607 0 0 Z " fill="#DFDFD0" transform="translate(636,257)"/>
<path d="M0 0 C1.32 0.33 2.64 0.66 4 1 C0.7 3.64 -2.6 6.28 -6 9 C-6 6 -6 6 -3.5625 3.375 C-2.716875 2.59125 -1.87125 1.8075 -1 1 C-0.67 0.67 -0.34 0.34 0 0 Z " fill="#16160F" transform="translate(498,402)"/>
<path d="M0 0 C0.66 0.33 1.32 0.66 2 1 C-4.435 3.97 -4.435 3.97 -11 7 C-11 6.34 -11 5.68 -11 5 C-12.98 5 -14.96 5 -17 5 C-17 4.67 -17 4.34 -17 4 C-15.91332031 3.81824219 -15.91332031 3.81824219 -14.8046875 3.6328125 C-10.56738753 2.89834717 -6.52447618 2.17482539 -2.4375 0.8125 C-1.633125 0.544375 -0.82875 0.27625 0 0 Z " fill="#D2D2C9" transform="translate(728,329)"/>
<path d="M0 0 C3.63 0 7.26 0 11 0 C11 0.66 11 1.32 11 2 C7.78548731 3.60725635 4.56387464 3.05748185 1 3 C0.67 2.01 0.34 1.02 0 0 Z " fill="#292700" transform="translate(745,743)"/>
<path d="M0 0 C4.875 1.875 4.875 1.875 6 3 C6.04080783 4.99958364 6.04254356 7.00045254 6 9 C5.01 9 4.02 9 3 9 C2.566875 7.576875 2.566875 7.576875 2.125 6.125 C1.23174891 2.94788422 1.23174891 2.94788422 -1 1 C-0.67 0.67 -0.34 0.34 0 0 Z " fill="#131200" transform="translate(752,729)"/>
<path d="M0 0 C-1.90607285 1.06092734 -3.82532746 2.09820101 -5.75 3.125 C-6.81734375 3.70507812 -7.8846875 4.28515625 -8.984375 4.8828125 C-12 6 -12 6 -14.390625 5.1796875 C-15.18726563 4.59574219 -15.18726563 4.59574219 -16 4 C-13.71144298 3.13656269 -11.4198072 2.2840189 -9.125 1.4375 C-8.47402344 1.19064453 -7.82304687 0.94378906 -7.15234375 0.68945312 C-2.2265625 -1.11328125 -2.2265625 -1.11328125 0 0 Z " fill="#D3D3C1" transform="translate(362,337)"/>
<path d="M0 0 C0.66 0.33 1.32 0.66 2 1 C0.68 2.32 -0.64 3.64 -2 5 C-1.67 5.66 -1.34 6.32 -1 7 C-6.2734375 10.22265625 -6.2734375 10.22265625 -8 11 C-8.66 10.67 -9.32 10.34 -10 10 C-6.7 6.7 -3.4 3.4 0 0 Z " fill="#E3E2C6" transform="translate(731,300)"/>
<path d="M0 0 C0.66 0.33 1.32 0.66 2 1 C1.54965877 2.62723299 1.08944646 4.25173664 0.625 5.875 C0.36976563 6.77992188 0.11453125 7.68484375 -0.1484375 8.6171875 C-1 11 -1 11 -3 13 C-3.33 11.02 -3.66 9.04 -4 7 C-2.68 6.34 -1.36 5.68 0 5 C0 3.35 0 1.7 0 0 Z " fill="#DFD800" transform="translate(446,857)"/>
<path d="M0 0 C3.33333333 1.66666667 6.66666667 3.33333333 10 5 C9.67 5.99 9.34 6.98 9 8 C5.08158173 6.69386058 2.67359191 5.16870152 0 2 C0 1.34 0 0.68 0 0 Z " fill="#191700" transform="translate(737,737)"/>
<path d="M0 0 C3.81684226 1.55500981 6.19195732 4.03595495 9 7 C8.67 7.99 8.34 8.98 8 10 C6.66070495 8.71451591 5.32871357 7.42141845 4 6.125 C2.88625 5.04605469 2.88625 5.04605469 1.75 3.9453125 C0 2 0 2 0 0 Z " fill="#FBD509" transform="translate(741,387)"/>
<path d="M0 0 C0.66 0.33 1.32 0.66 2 1 C0.76600937 2.36877116 -0.48780623 3.71969166 -1.75 5.0625 C-2.79414062 6.19365234 -2.79414062 6.19365234 -3.859375 7.34765625 C-4.56578125 7.89292969 -5.2721875 8.43820312 -6 9 C-7.32 8.67 -8.64 8.34 -10 8 C-6.7 5.36 -3.4 2.72 0 0 Z " fill="#2A1A05" transform="translate(684,743)"/>
<path d="M0 0 C1.98 0 3.96 0 6 0 C5.67 1.32 5.34 2.64 5 4 C3.35 4.33 1.7 4.66 0 5 C0 3.35 0 1.7 0 0 Z " fill="#FCF300" transform="translate(748,723)"/>
<path d="M0 0 C9.41002278 -0.18451025 9.41002278 -0.18451025 14 1 C10.35969312 3.3297964 7.24881273 3.3862557 3 3 C1.28515625 1.48046875 1.28515625 1.48046875 0 0 Z " fill="#CDB4B8" transform="translate(538,797)"/>
<path d="M0 0 C0 0.99 0 1.98 0 3 C-2.31 4.32 -4.62 5.64 -7 7 C-7 5.68 -7 4.36 -7 3 C-2.92857143 0 -2.92857143 0 0 0 Z " fill="#1A190B" transform="translate(436,576)"/>
<path d="M0 0 C0.66 0.33 1.32 0.66 2 1 C0.25 4.875 0.25 4.875 -2 6 C-3.99960012 6.039992 -6.00047242 6.04346799 -8 6 C-5.38485683 3.87961365 -2.80362384 1.86908256 0 0 Z " fill="#F4F3DB" transform="translate(537,308)"/>
<path d="M0 0 C0 3.58912412 -0.66436554 4.10857029 -3 6.6875 C-3.556875 7.31011719 -4.11375 7.93273437 -4.6875 8.57421875 C-5.120625 9.04472656 -5.55375 9.51523437 -6 10 C-6.99 9.67 -7.98 9.34 -9 9 C-6.03 6.03 -3.06 3.06 0 0 Z " fill="#E9E413" transform="translate(488,301)"/>
<path d="M0 0 C-3.67259383 2.44839588 -6.54648201 4 -11 4 C-11 3.34 -11 2.68 -11 2 C-10.01 1.67 -9.02 1.34 -8 1 C-7.34 1.33 -6.68 1.66 -6 2 C-6 1.34 -6 0.68 -6 0 C-3 -1 -3 -1 0 0 Z " fill="#D5D000" transform="translate(629,1013)"/>
<path d="M0 0 C2.64 0 5.28 0 8 0 C5.06171403 2.50298434 2.82097239 3.46930939 -1 4 C-0.67 2.68 -0.34 1.36 0 0 Z " fill="#F0F0E3" transform="translate(342,342)"/>
<path d="M0 0 C0.33 0 0.66 0 1 0 C1.1875 2.375 1.1875 2.375 1 5 C-2 7 -2 7 -5 7 C-5 6.34 -5 5.68 -5 5 C-4.34 4.67 -3.68 4.34 -3 4 C-3 3.34 -3 2.68 -3 2 C-2.01 2 -1.02 2 0 2 C0 1.34 0 0.68 0 0 Z " fill="#DAD500" transform="translate(758,736)"/>
<path d="M0 0 C0.66 0.33 1.32 0.66 2 1 C0.9024777 3.99324263 0.32317108 4.84610901 -2.625 6.25 C-3.40875 6.4975 -4.1925 6.745 -5 7 C-3.75023244 3.34683329 -3.32901247 2.21934164 0 0 Z " fill="#EDE2E4" transform="translate(462,561)"/>
<path d="M0 0 C0.66 0.33 1.32 0.66 2 1 C1.67 1.99 1.34 2.98 1 4 C-0.98 4.33 -2.96 4.66 -5 5 C-4 2 -4 2 -2.0625 0.75 C-1.381875 0.5025 -0.70125 0.255 0 0 Z " fill="#FDF30D" transform="translate(642,300)"/>
<path d="M0 0 C-4.30769231 3.07692308 -4.30769231 3.07692308 -7.8125 2.6875 C-8.534375 2.460625 -9.25625 2.23375 -10 2 C-6.19832777 -0.53444815 -4.31588991 -1.33941411 0 0 Z " fill="#D2D2C3" transform="translate(654,295)"/>
<path d="M0 0 C3.2542015 2.83430453 4.5206753 4.68607774 5 9 C4.34 9 3.68 9 3 9 C0 3.375 0 3.375 0 0 Z " fill="#DBD600" transform="translate(561,621)"/>
<path d="M0 0 C0.33 0 0.66 0 1 0 C1.05447047 1.41623216 1.09300508 2.83308191 1.125 4.25 C1.14820313 5.03890625 1.17140625 5.8278125 1.1953125 6.640625 C0.9828378 9.20731941 0.28654105 10.7916067 -1 13 C-2.20577428 8.05632546 -1.6290678 4.79137588 0 0 Z " fill="#C4BC00" transform="translate(617,465)"/>
<path d="M0 0 C0.66 0.33 1.32 0.66 2 1 C2 1.99 2 2.98 2 4 C-1 6.1875 -1 6.1875 -4 8 C-2.25 2.25 -2.25 2.25 0 0 Z " fill="#F6EC0F" transform="translate(710,283)"/>
<path d="M0 0 C0.66 0 1.32 0 2 0 C0.7508258 3.45925163 -0.67527795 6.14693203 -3 9 C-2.5020163 5.26512223 -2.12508244 3.18762365 0 0 Z " fill="#E1DB00" transform="translate(550,712)"/>
<path d="M0 0 C1.89213369 2.38573379 3.02391783 4.07175348 4 7 C3.01 7 2.02 7 1 7 C-0.0625 4.625 -0.0625 4.625 -1 2 C-0.67 1.34 -0.34 0.68 0 0 Z " fill="#E9E8D8" transform="translate(762,236)"/>
</svg>
