<?xml version="1.0" encoding="utf-8"?>
<!-- Generator: Adobe Illustrator 27.3.1, SVG Export Plug-In . SVG Version: 6.00 Build 0)  -->
<svg version="1.1" id="Layer_1" xmlns="http://www.w3.org/2000/svg" xmlns:xlink="http://www.w3.org/1999/xlink" x="0px" y="0px"
	 viewBox="0 0 1828.7 1559.7" style="enable-background:new 0 0 1828.7 1559.7;" xml:space="preserve">
<style type="text/css">
	.st0{fill:url(#SVGID_1_);stroke:#231F20;stroke-width:3;stroke-miterlimit:10;}
	.st1{fill:url(#SVGID_00000021798532719855473630000009170814445304255409_);stroke:#231F20;stroke-width:3;stroke-miterlimit:10;}
	.st2{fill:url(#SVGID_00000098936645344580489790000001539012005830568367_);stroke:#231F20;stroke-width:3;stroke-miterlimit:10;}
	.st3{fill:url(#SVGID_00000036245674874115344040000010995783771917130409_);stroke:#231F20;stroke-width:3;stroke-miterlimit:10;}
	.st4{fill:url(#SVGID_00000023960474985733443430000004585922585591131029_);stroke:#231F20;stroke-width:3;stroke-miterlimit:10;}
	.st5{fill:none;stroke:#FFFFFF;stroke-width:11;stroke-miterlimit:10;}
	.st6{fill:url(#SVGID_00000111885462048999688190000004944692376116641958_);stroke:#606060;stroke-miterlimit:10;}
	.st7{fill:#FFFFFF;stroke:#231F20;stroke-miterlimit:10;}
</style>
<g>
	<g id="Layer_2_00000087400381063965038350000011713356911196957851_">
		
			<linearGradient id="SVGID_1_" gradientUnits="userSpaceOnUse" x1="910.2357" y1="1402.3108" x2="910.2357" y2="367.6806" gradientTransform="matrix(1 0 0 -1 0 1562)">
			<stop  offset="0" style="stop-color:#30628B"/>
			<stop  offset="0.51" style="stop-color:#95CFF4"/>
			<stop  offset="1" style="stop-color:#FFFFFF"/>
		</linearGradient>
		<path class="st0" d="M919,1193.6c-58.3,3.8-93.7-38.8-144.3-70.9c-117.2-70.7-247.3-19.8-332.7,17
			c-87.5-108.4-120.3-207.3-128.3-376.2C343.6-186.2,1815.2,44,1447.9,1038.2c-145.4,18.8-364.1,89.1-490.2,156.1l-22.6-34.8
			L919,1193.6L919,1193.6L919,1193.6z"/>
		<g>
			<g>
				
					<linearGradient id="SVGID_00000066503640006929137890000014682171544467092642_" gradientUnits="userSpaceOnUse" x1="872.724" y1="340.6581" x2="183.9484" y2="340.6581" gradientTransform="matrix(1 0 0 -1 0 1562)">
					<stop  offset="0" style="stop-color:#FFFFFF"/>
					<stop  offset="0.49" style="stop-color:#95CFF4"/>
					<stop  offset="1" style="stop-color:#30628B"/>
				</linearGradient>
				
					<path style="fill:url(#SVGID_00000066503640006929137890000014682171544467092642_);stroke:#231F20;stroke-width:3;stroke-miterlimit:10;" d="
					M184.4,1126.3c2.3,16.4,33.5,78.5,80.6,94.7c101.1,29.1,146.5-21.8,216.6-56.5c91.1-57.7,220.7-61.3,328.3,24.6
					c6.5,6.8,49.6,31.7,62.9,35c-51.2,16.6-82.8,25.2-154.3,32.4c-63.1,5.6-65.2-2.6-106.7,1.7c-60.9,6.3-63.8,24.7-162.2,48.7
					c-61,14.8-83.9,13.6-96.1,12.4C235.1,1317.4,178.4,1183.7,184.4,1126.3L184.4,1126.3L184.4,1126.3z"/>
				
					<linearGradient id="SVGID_00000132769935911907063340000008290071165829667229_" gradientUnits="userSpaceOnUse" x1="1585.468" y1="360.8377" x2="584.5081" y2="360.8377" gradientTransform="matrix(1 0 0 -1 0 1562)">
					<stop  offset="0" style="stop-color:#FFFFFF"/>
					<stop  offset="0.49" style="stop-color:#95CFF4"/>
					<stop  offset="1" style="stop-color:#30628B"/>
				</linearGradient>
				
					<path style="fill:url(#SVGID_00000132769935911907063340000008290071165829667229_);stroke:#231F20;stroke-width:3;stroke-miterlimit:10;" d="
					M584.5,1305.2c132.5-1.1,248.9-27.7,345.6-62c180.8-71.1,471.8-224,655.4-136.1C1228.6,1084.5,943,1395.5,584.5,1305.2
					L584.5,1305.2L584.5,1305.2z"/>
				
					<linearGradient id="SVGID_00000090261569861110679160000003650637518376085435_" gradientUnits="userSpaceOnUse" x1="1629.532" y1="278.3419" x2="705.452" y2="278.3419" gradientTransform="matrix(1 0 0 -1 0 1562)">
					<stop  offset="0" style="stop-color:#FFFFFF"/>
					<stop  offset="0.49" style="stop-color:#95CFF4"/>
					<stop  offset="1" style="stop-color:#30628B"/>
				</linearGradient>
				
					<path style="fill:url(#SVGID_00000090261569861110679160000003650637518376085435_);stroke:#231F20;stroke-width:3;stroke-miterlimit:10;" d="
					M705.5,1353.8c360.7,47.4,710.2-356.6,924.1-107.6C1341.5,1148.5,1136.7,1534.9,705.5,1353.8z"/>
				
					<linearGradient id="SVGID_00000085952140816098506320000010308669306696159884_" gradientUnits="userSpaceOnUse" x1="1643.532" y1="402.9507" x2="1550.6121" y2="402.9507" gradientTransform="matrix(1 0 0 -1 0 1562)">
					<stop  offset="0" style="stop-color:#FFFFFF"/>
					<stop  offset="0.49" style="stop-color:#95CFF4"/>
					<stop  offset="1" style="stop-color:#30628B"/>
				</linearGradient>
				
					<path style="fill:url(#SVGID_00000085952140816098506320000010308669306696159884_);stroke:#231F20;stroke-width:3;stroke-miterlimit:10;" d="
					M1550.6,1142.3c12.4,4.1,48.2,17.9,64,34.1c6.1-11.5,19.2-0.2,28.9-7.7c-9.2-5-22.8-11.7-40.2-17.2
					C1576.2,1142.8,1551,1140.6,1550.6,1142.3z"/>
			</g>
		</g>
		<g>
			<line class="st5" x1="414.2" y1="508.2" x2="832.8" y2="163.4"/>
			<line class="st5" x1="326.7" y1="653.4" x2="915.7" y2="159.6"/>
			<line class="st5" x1="621" y1="561.3" x2="1073.5" y2="181.9"/>
			<line class="st5" x1="632" y1="479.4" x2="1000.6" y2="164.1"/>
			<line class="st5" x1="647.2" y1="625.7" x2="1140.6" y2="203.6"/>
			<line class="st5" x1="885.6" y1="492.7" x2="1195.3" y2="227.7"/>
			<line class="st5" x1="771.5" y1="699.6" x2="1270.8" y2="272.4"/>
			<line class="st5" x1="954" y1="657.3" x2="1338.9" y2="328"/>
			<line class="st5" x1="911.5" y1="792.4" x2="1389.4" y2="383.4"/>
			<line class="st5" x1="941.1" y1="825.6" x2="1415.6" y2="419.6"/>
			<line class="st5" x1="942" y1="926.7" x2="1455.9" y2="492.3"/>
			<line class="st5" x1="1105.7" y1="857.8" x2="1475.5" y2="541.5"/>
		</g>
		
			<linearGradient id="SVGID_00000098913073390000363950000013637706704372102823_" gradientUnits="userSpaceOnUse" x1="908.3801" y1="367.6882" x2="908.3801" y2="992.1603" gradientTransform="matrix(1 0 0 -1 0 1562)">
			<stop  offset="0" style="stop-color:#0F3547"/>
			<stop  offset="1" style="stop-color:#30628B"/>
		</linearGradient>
		<path style="fill:url(#SVGID_00000098913073390000363950000013637706704372102823_);stroke:#606060;stroke-miterlimit:10;" d="
			M1411,1044.1v-47h-35.5v-56.2l-41.2-0.5l-0.5-49.9l11.2-0.2V856h-147.3l-0.3-32.5h13.2v-7.2l-40-29.7l-67.9-0.5v-56.4h-51.4
			l-0.5-59.7h15v-36.2l-30.5-0.5l-113.1-63.4l-121.6,64.4h-28V671h16.2v58.9h-54.2v56.2l-84.7,1l-39.5,31.7l-0.2,5.2h13v33h-49.2
			V923H436l0.1,24.1h7.5v48.6h-14.3v38h-27.4v51.3h0.3c1.5,3.1,13.3,19.8,19.6,28.4c7.7,10.4,15.3,20.4,20.2,26.2
			c85.8-36.7,215.6-87.7,333.4-17c50.8,32.1,86.3,74.7,144.9,70.9l0,0l16.1-34l22.7,34.8c67.5-33.1,147.4-66.9,239-96.1
			c78.4-25,151.4-42.2,216.8-54.1"/>
		<rect x="812.5" y="791.5" class="st7" width="23.2" height="47.1"/>
		<rect x="862" y="791.5" class="st7" width="23.2" height="47.1"/>
		<rect x="916.2" y="791.5" class="st7" width="23.2" height="47.1"/>
		<rect x="969.2" y="791.5" class="st7" width="23.2" height="47.1"/>
		<rect x="1016.3" y="791.5" class="st7" width="23.2" height="47.1"/>
		<rect x="812.5" y="863" class="st7" width="23.2" height="47.1"/>
		<rect x="862" y="863" class="st7" width="23.2" height="47.1"/>
		<rect x="916.2" y="863" class="st7" width="23.2" height="47.1"/>
		<rect x="969.2" y="863" class="st7" width="23.2" height="47.1"/>
		<rect x="1016.3" y="863" class="st7" width="23.2" height="47.1"/>
		<rect x="811.9" y="934.5" class="st7" width="23.2" height="47.1"/>
		<rect x="861.4" y="934.5" class="st7" width="23.2" height="47.1"/>
		<rect x="915.6" y="934.5" class="st7" width="23.2" height="47.1"/>
		<rect x="968.6" y="934.5" class="st7" width="23.2" height="47.1"/>
		<rect x="1015.7" y="934.5" class="st7" width="23.2" height="47.1"/>
		<rect x="811.9" y="1002.4" class="st7" width="23.2" height="47.1"/>
		<rect x="861.4" y="1002.4" class="st7" width="23.2" height="47.1"/>
		<rect x="915.6" y="1002.4" class="st7" width="23.2" height="47.1"/>
		<rect x="968.6" y="1002.4" class="st7" width="23.2" height="47.1"/>
		<rect x="1015.7" y="1002.4" class="st7" width="23.2" height="47.1"/>
		<rect x="813.7" y="1074.6" class="st7" width="23.2" height="47.1"/>
		<rect x="863.1" y="1074.6" class="st7" width="23.2" height="47.1"/>
		<rect x="917.4" y="1074.6" class="st7" width="23.2" height="47.1"/>
		<rect x="970.4" y="1074.6" class="st7" width="23.2" height="47.1"/>
		<rect x="1017.5" y="1074.6" class="st7" width="23.2" height="47.1"/>
		<path class="st7" d="M884.4,747.7h-19.7v-58.1c0.8-4.8,4.8-8.3,9.6-8.5c4.9-0.1,9.3,3.5,10.1,8.5L884.4,747.7L884.4,747.7z"/>
		<path class="st7" d="M934.1,747.7h-19.7v-58.1c0.8-4.8,4.8-8.3,9.6-8.5c4.9-0.1,9.3,3.5,10.1,8.5L934.1,747.7L934.1,747.7z"/>
		<path class="st7" d="M983.1,747.7h-19.7v-58.1c0.8-4.8,4.8-8.3,9.6-8.5c4.9-0.1,9.3,3.5,10.1,8.5L983.1,747.7L983.1,747.7z"/>
		<path class="st7" d="M859.3,631.2l60.6-32.8l61.8,32.8c-8.1,0.4-19.4,0.2-32.3-2.8c-12.4-2.8-22.2-7.3-29.2-11
			c-6.5,3.5-15,7.3-25.4,10C880.6,631.2,868.1,631.6,859.3,631.2L859.3,631.2z"/>
		<rect x="467.1" y="979.4" class="st7" width="14.4" height="21.2"/>
		<rect x="492.3" y="979.4" class="st7" width="14.4" height="21.2"/>
		<rect x="519.3" y="979.4" class="st7" width="14.4" height="21.2"/>
		<rect x="467.2" y="1017" class="st7" width="14.4" height="21.2"/>
		<rect x="492.5" y="1017" class="st7" width="14.4" height="21.2"/>
		<rect x="519.5" y="1017" class="st7" width="14.4" height="21.2"/>
		<rect x="467.2" y="1053.4" class="st7" width="14.4" height="21.2"/>
		<rect x="492.5" y="1053.4" class="st7" width="14.4" height="21.2"/>
		<rect x="519.5" y="1053.4" class="st7" width="14.4" height="21.2"/>
		<rect x="466.4" y="1089.7" class="st7" width="14.4" height="21.2"/>
		<rect x="491.6" y="1089.7" class="st7" width="14.4" height="21.2"/>
		<path class="st7" d="M518.6,1109.7v-20H533v15.6C528,1107,523.7,1107.9,518.6,1109.7z"/>
		<rect x="1222.5" y="951.3" class="st7" width="14.4" height="21.2"/>
		<rect x="1247.7" y="951.3" class="st7" width="14.4" height="21.2"/>
		<rect x="1274.7" y="951.3" class="st7" width="14.4" height="21.2"/>
		<rect x="1222.6" y="988.9" class="st7" width="14.4" height="21.2"/>
		<rect x="1247.9" y="988.9" class="st7" width="14.4" height="21.2"/>
		<rect x="1274.9" y="988.9" class="st7" width="14.4" height="21.2"/>
		<rect x="1222.6" y="1025.2" class="st7" width="14.4" height="21.2"/>
		<rect x="1247.9" y="1025.2" class="st7" width="14.4" height="21.2"/>
		<rect x="1274.9" y="1025.2" class="st7" width="14.4" height="21.2"/>
		<rect x="1221.7" y="1061.6" class="st7" width="14.4" height="23.8"/>
		<polygon class="st7" points="1261.4,1079.3 1247,1083.4 1247,1061.6 1261.4,1061.6 		"/>
		<path class="st7" d="M1274,1075.8v-14.2h14.4v10.5C1283.2,1073.2,1279.2,1074.5,1274,1075.8z"/>
		<rect x="559.5" y="956.3" class="st7" width="13.2" height="41.8"/>
		<rect x="559.5" y="1011.4" class="st7" width="13.2" height="28.6"/>
		<rect x="559.5" y="1053.4" class="st7" width="13.2" height="21.2"/>
		<polygon class="st7" points="623.3,1087.9 607.9,1089.4 607.9,896.2 623.3,896.2 		"/>
		<polygon class="st7" points="665.1,1087.9 653.4,1087.4 653.4,848.5 665.1,848.5 		"/>
		<polygon class="st7" points="706.2,1094.3 693,1091.5 693,848.5 706.2,848.5 		"/>
		<polygon class="st7" points="1143.1,1116.7 1132.3,1120.6 1132.3,847.2 1143.1,847.2 		"/>
		<polygon class="st7" points="1167.5,1108.3 1155.6,1112.4 1155.6,854.2 1167.5,854.2 		"/>
	</g>
</g>
</svg>
